<svg xmlns="http://www.w3.org/2000/svg" xmlns:v="https://svgstorm.com"
viewBox = "0 0 558 1497"
width="558"
height="1497">
<g fill="None" fill-opacity="0.0" stroke="#EBE4CA" stroke-opacity="1.00" stroke-width="0.3"><path d="
M 0.00 88.00 
C 25.48 74.90 55.21 93.18 79.01 99.99 C 102.81 106.81 134.69 93.49 147.00 125.00
C 156.58 122.99 166.08 128.50 176.00 128.00
C 192.49 140.92 208.00 134.30 232.00 139.00 C 256.00 143.70 258.22 128.43 261.00 111.00
C 260.79 106.21 262.46 102.56 264.00 98.00
C 268.65 98.35 271.76 95.21 273.00 91.00
C 285.78 82.31 306.44 85.39 320.00 90.00
C 318.17 94.12 326.72 91.55 324.00 96.00
C 346.99 103.41 351.00 62.23 378.00 69.00
C 380.11 81.57 404.00 70.23 400.00 86.00
C 402.16 73.28 421.50 83.50 433.23 77.23 C 444.95 70.96 456.49 75.27 468.00 69.00
C 471.50 61.56 478.23 54.31 477.00 46.00
C 500.83 35.60 513.02 16.25 531.00 0.00
L 0.00 0.00
L 0.00 88.00 Z"/>
</g>
<g fill="None" fill-opacity="0.0" stroke="#FDE5D1" stroke-opacity="1.00" stroke-width="0.3"><path d="
M 0.00 88.00 
L 0.00 251.00
C 1.51 251.65 2.80 252.24 4.00 253.00
C 30.55 264.14 49.93 265.68 74.00 249.00
C 95.75 233.93 107.56 219.00 133.00 206.00
C 154.74 194.89 161.57 211.50 174.00 228.00
C 177.84 223.99 183.82 222.17 186.00 217.00
C 208.62 215.25 207.99 252.66 230.00 253.00
C 232.41 253.13 233.81 253.30 236.00 254.00
C 257.75 260.95 256.76 298.11 288.00 287.00
C 311.92 278.49 337.46 278.82 363.00 272.00
C 382.10 264.41 390.85 232.97 411.30 226.30 C 431.76 219.64 463.16 201.87 481.11 215.89 C 499.05 229.91 537.82 229.41 558.00 221.00
L 558.00 0.00
L 531.00 0.00
C 513.02 16.25 500.83 35.60 477.00 46.00
C 478.23 54.31 471.50 61.56 468.00 69.00
C 456.49 75.27 444.95 70.96 433.23 77.23 C 421.50 83.50 402.16 73.28 400.00 86.00
C 404.00 70.23 380.11 81.57 378.00 69.00
C 351.00 62.23 346.99 103.41 324.00 96.00
C 326.72 91.55 318.17 94.12 320.00 90.00
C 306.44 85.39 285.78 82.31 273.00 91.00
C 271.76 95.21 268.65 98.35 264.00 98.00
C 262.46 102.56 260.79 106.21 261.00 111.00
C 258.22 128.43 256.00 143.70 232.00 139.00 C 208.00 134.30 192.49 140.92 176.00 128.00
C 166.08 128.50 156.58 122.99 147.00 125.00
C 134.69 93.49 102.81 106.81 79.01 99.99 C 55.21 93.18 25.48 74.90 0.00 88.00 Z"/>
</g>
<g fill="None" fill-opacity="0.0" stroke="#EBE9DD" stroke-opacity="1.00" stroke-width="0.3"><path d="
M 133.00 206.00 
C 148.14 200.48 161.07 206.00 167.00 223.00
C 167.51 223.55 167.63 224.41 168.00 225.00
C 169.47 226.36 172.11 228.35 174.00 230.00
C 175.93 229.34 176.67 226.61 179.00 227.00
C 179.26 226.76 179.67 226.17 180.00 226.00
C 196.78 204.45 212.89 252.10 230.00 253.00
C 207.99 252.66 208.62 215.25 186.00 217.00
C 183.82 222.17 177.84 223.99 174.00 228.00
C 161.57 211.50 154.74 194.89 133.00 206.00 Z"/>
</g>
<g fill="None" fill-opacity="0.0" stroke="#C6E1DB" stroke-opacity="1.00" stroke-width="0.3"><path d="
M 133.00 206.00 
C 107.56 219.00 95.75 233.93 74.00 249.00
C 71.79 250.80 69.98 254.02 68.00 256.00
C 68.94 255.29 70.10 254.68 71.00 254.00
C 92.60 237.67 92.91 228.76 117.08 216.08 C 141.26 203.41 146.93 201.40 167.00 223.00
C 161.07 206.00 148.14 200.48 133.00 206.00 Z"/>
</g>
<g fill="None" fill-opacity="0.0" stroke="#38A3AC" stroke-opacity="1.00" stroke-width="0.3"><path d="
M 71.00 254.00 
C 61.17 264.43 42.00 268.51 28.00 266.00
C 17.72 264.16 9.19 258.43 0.00 254.00
L 0.00 354.00
C 20.27 352.67 39.02 357.18 58.00 361.00
C 80.22 371.06 66.93 398.99 56.00 415.00
C 89.06 412.64 117.82 432.25 142.00 450.00
C 99.23 439.00 55.12 420.90 15.00 400.00
C 32.26 450.46 89.26 466.34 139.00 477.00
C 157.41 478.00 180.84 485.32 199.67 483.33 C 218.50 481.34 240.74 497.13 257.00 488.00
C 258.06 487.41 258.97 487.45 260.00 487.00
C 261.82 485.77 262.08 484.07 264.00 483.00
C 267.13 481.26 270.76 479.86 274.00 478.00
C 276.34 476.65 277.50 475.31 281.00 476.00
C 283.71 473.62 285.73 473.79 289.00 473.00
C 292.17 471.91 295.52 470.03 299.00 469.00
C 308.63 466.16 318.01 462.69 328.00 461.00
C 342.93 456.95 360.99 445.66 374.00 437.00
C 376.14 435.33 377.70 432.61 380.00 431.00
C 380.20 430.60 380.00 430.00 380.00 430.00
C 381.92 425.04 388.56 421.10 392.00 417.00
C 395.65 411.89 400.66 407.07 404.00 402.00
C 410.27 392.48 419.69 383.31 428.00 375.00
C 433.19 368.93 439.01 363.50 446.00 360.00
C 450.50 356.98 455.63 352.98 461.00 351.00
C 462.96 350.28 463.41 349.99 465.00 349.00
C 458.81 349.78 452.22 342.91 446.00 345.00
C 432.66 356.74 419.20 363.80 404.00 372.00
C 395.54 376.57 387.01 384.67 378.00 388.00
C 377.94 388.49 378.00 389.00 378.00 389.00
C 371.64 402.01 351.08 412.68 335.78 412.78 C 320.47 412.87 303.60 425.66 290.00 433.00
C 283.49 436.51 276.76 441.58 269.00 442.00
C 250.86 444.95 237.85 458.60 220.77 465.77 C 203.69 472.94 178.52 465.18 163.00 458.00
C 159.23 456.84 155.72 455.37 152.00 454.00
C 125.78 444.32 104.39 409.03 89.25 386.75 C 74.11 364.48 53.72 335.35 30.00 316.00
C 99.04 338.69 179.96 324.30 251.00 340.00
C 247.82 310.31 206.31 320.86 199.00 292.00
C 225.43 297.21 253.49 303.88 281.00 300.00
C 273.64 295.20 266.48 290.57 260.00 284.00
C 242.04 273.78 236.76 257.58 216.98 253.02 C 197.19 248.47 209.17 210.90 180.00 226.00
C 179.67 226.17 179.26 226.76 179.00 227.00
C 177.10 228.75 174.65 231.47 172.00 232.00
C 170.84 229.53 169.61 227.19 168.00 225.00
C 167.63 224.41 167.51 223.55 167.00 223.00
C 146.93 201.40 141.26 203.41 117.08 216.08 C 92.91 228.76 92.60 237.67 71.00 254.00 Z"/>
</g>
<g fill="None" fill-opacity="0.0" stroke="#E6E4D3" stroke-opacity="1.00" stroke-width="0.3"><path d="
M 363.00 272.00 
C 367.91 270.69 373.98 264.14 378.00 261.00
C 388.61 250.18 397.17 245.04 407.25 233.25 C 417.32 221.46 436.68 228.54 448.00 217.00
C 448.17 216.67 448.78 216.26 449.00 216.00
C 465.72 196.62 477.97 221.81 493.75 226.25 C 509.54 230.69 541.41 228.89 558.00 225.00
L 558.00 221.00
C 537.82 229.41 499.05 229.91 481.11 215.89 C 463.16 201.87 431.76 219.64 411.30 226.30 C 390.85 232.97 382.10 264.41 363.00 272.00 Z"/>
</g>
<g fill="None" fill-opacity="0.0" stroke="#ABCCBE" stroke-opacity="1.00" stroke-width="0.3"><path d="
M 449.00 216.00 
C 456.34 213.78 464.37 214.41 471.00 210.00
C 476.74 216.71 482.66 224.17 491.00 228.00
C 470.71 232.31 440.80 229.17 418.00 230.00
C 425.06 222.26 444.38 231.32 448.00 217.00
C 436.68 228.54 417.32 221.46 407.25 233.25 C 397.17 245.04 388.61 250.18 378.00 261.00
C 370.48 268.67 362.77 277.65 350.00 275.00
C 368.96 290.33 403.03 277.65 429.00 281.00
C 432.24 287.61 445.71 282.28 453.00 284.00
C 469.02 268.22 510.26 281.26 536.00 277.00
C 532.50 281.45 526.21 282.54 521.00 285.00
C 532.09 288.79 545.76 287.00 558.00 288.00
L 558.00 225.00
C 541.41 228.89 509.54 230.69 493.75 226.25 C 477.97 221.81 465.72 196.62 449.00 216.00 Z"/>
</g>
<g fill="None" fill-opacity="0.0" stroke="#8AC3BA" stroke-opacity="1.00" stroke-width="0.3"><path d="
M 449.00 216.00 
C 448.78 216.26 448.17 216.67 448.00 217.00
C 444.38 231.32 425.06 222.26 418.00 230.00
C 440.80 229.17 470.71 232.31 491.00 228.00
C 482.66 224.17 476.74 216.71 471.00 210.00
C 464.37 214.41 456.34 213.78 449.00 216.00 Z"/>
</g>
<g fill="None" fill-opacity="0.0" stroke="#C2D5C3" stroke-opacity="1.00" stroke-width="0.3"><path d="
M 180.00 226.00 
C 209.17 210.90 197.19 248.47 216.98 253.02 C 236.76 257.58 242.04 273.78 260.00 284.00
C 278.35 294.45 293.34 308.85 311.00 319.00
C 316.57 315.18 323.07 312.90 330.00 312.00
C 337.43 330.84 363.75 327.67 374.00 346.00
C 370.55 341.05 365.82 336.79 363.00 332.00
C 384.63 332.10 397.72 341.65 421.01 336.01 C 444.29 330.37 459.29 337.71 438.30 349.30 C 417.32 360.90 418.15 368.34 396.00 367.00
C 391.02 359.98 382.20 354.61 375.00 346.00
C 380.33 353.62 392.73 372.64 404.00 372.00
C 419.20 363.80 432.66 356.74 446.00 345.00
C 459.72 332.92 494.43 325.12 510.00 326.00
C 511.32 326.07 512.67 326.00 514.00 326.00
C 516.34 325.67 517.60 325.39 520.00 326.00
C 521.29 326.11 522.27 326.86 523.00 327.00
C 523.82 326.91 525.20 326.83 526.00 327.00
C 527.01 327.22 528.13 328.50 529.00 329.00
C 539.52 332.88 550.11 335.45 558.00 342.00
L 558.00 288.00
C 545.76 287.00 532.09 288.79 521.00 285.00
C 526.21 282.54 532.50 281.45 536.00 277.00
C 510.26 281.26 469.02 268.22 453.00 284.00
C 445.71 282.28 432.24 287.61 429.00 281.00
C 403.03 277.65 368.96 290.33 350.00 275.00
C 362.77 277.65 370.48 268.67 378.00 261.00
C 373.98 264.14 367.91 270.69 363.00 272.00
C 337.46 278.82 311.92 278.49 288.00 287.00
C 257.87 301.57 256.19 266.09 236.00 254.00
C 233.81 253.30 232.41 253.13 230.00 253.00
C 212.89 252.10 196.78 204.45 180.00 226.00 Z"/>
</g>
<g fill="None" fill-opacity="0.0" stroke="#C7E3DD" stroke-opacity="1.00" stroke-width="0.3"><path d="
M 179.00 227.00 
C 176.67 226.61 175.93 229.34 174.00 230.00
C 172.11 228.35 169.47 226.36 168.00 225.00
C 169.61 227.19 170.84 229.53 172.00 232.00
C 174.65 231.47 177.10 228.75 179.00 227.00 Z"/>
</g>
<g fill="None" fill-opacity="0.0" stroke="#E8E9DD" stroke-opacity="1.00" stroke-width="0.3"><path d="
M 4.00 253.00 
C 13.98 259.32 23.35 264.48 36.00 264.00
C 47.77 263.55 58.77 262.98 68.00 256.00
C 69.98 254.02 71.79 250.80 74.00 249.00
C 49.93 265.68 30.55 264.14 4.00 253.00 Z"/>
</g>
<g fill="None" fill-opacity="0.0" stroke="#C5E2DD" stroke-opacity="1.00" stroke-width="0.3"><path d="
M 0.00 254.00 
C 9.19 258.43 17.72 264.16 28.00 266.00
C 31.76 266.18 33.47 264.66 36.00 264.00
C 23.35 264.48 13.98 259.32 4.00 253.00
C 2.80 252.24 1.51 251.65 0.00 251.00
L 0.00 254.00 Z"/>
</g>
<g fill="None" fill-opacity="0.0" stroke="#8EB8B5" stroke-opacity="1.00" stroke-width="0.3"><path d="
M 68.00 256.00 
C 58.77 262.98 47.77 263.55 36.00 264.00
C 33.47 264.66 31.76 266.18 28.00 266.00
C 42.00 268.51 61.17 264.43 71.00 254.00
C 70.10 254.68 68.94 255.29 68.00 256.00 Z"/>
</g>
<g fill="None" fill-opacity="0.0" stroke="#E9E6D8" stroke-opacity="1.00" stroke-width="0.3"><path d="
M 288.00 287.00 
C 256.76 298.11 257.75 260.95 236.00 254.00
C 256.19 266.09 257.87 301.57 288.00 287.00 Z"/>
</g>
<g fill="None" fill-opacity="0.0" stroke="#73BDB9" stroke-opacity="1.00" stroke-width="0.3"><path d="
M 152.00 454.00 
C 146.03 451.24 140.77 444.60 140.00 438.00
C 170.74 446.25 202.37 454.13 236.00 453.00
C 217.20 477.23 188.59 462.79 163.00 458.00
C 178.52 465.18 203.69 472.94 220.77 465.77 C 237.85 458.60 250.86 444.95 269.00 442.00
C 255.89 442.71 236.24 445.19 232.00 429.00
C 220.35 422.32 209.59 411.96 197.00 406.00
C 228.36 406.66 265.95 411.62 299.01 412.99 C 332.06 414.36 293.61 422.65 290.00 433.00
C 303.60 425.66 320.47 412.87 335.78 412.78 C 351.08 412.68 371.64 402.01 378.00 389.00
C 361.54 406.57 316.94 383.23 308.00 367.00
C 331.47 375.49 356.65 378.70 382.00 381.00
C 383.44 385.00 377.55 384.48 378.00 388.00
C 387.01 384.67 395.54 376.57 404.00 372.00
C 392.73 372.64 380.33 353.62 375.00 346.00
C 374.60 345.80 374.00 346.00 374.00 346.00
C 363.75 327.67 337.43 330.84 330.00 312.00
C 323.07 312.90 316.57 315.18 311.00 319.00
C 293.34 308.85 278.35 294.45 260.00 284.00
C 266.48 290.57 273.64 295.20 281.00 300.00
C 253.49 303.88 225.43 297.21 199.00 292.00
C 206.31 320.86 247.82 310.31 251.00 340.00
C 179.96 324.30 99.04 338.69 30.00 316.00
C 53.72 335.35 74.11 364.48 89.25 386.75 C 104.39 409.03 125.78 444.32 152.00 454.00 Z"/>
</g>
<g fill="None" fill-opacity="0.0" stroke="#98CBB9" stroke-opacity="1.00" stroke-width="0.3"><path d="
M 446.00 345.00 
C 452.22 342.91 458.81 349.78 465.00 349.00
C 468.77 346.66 473.15 344.89 477.00 343.00
C 478.96 341.77 480.71 340.17 483.00 339.00
C 486.65 337.14 490.17 335.28 494.00 334.00
C 496.50 332.86 499.19 331.10 502.00 330.00
C 504.27 329.11 508.00 326.46 510.00 326.00
C 494.43 325.12 459.72 332.92 446.00 345.00 Z"/>
</g>
<g fill="None" fill-opacity="0.0" stroke="#668B8D" stroke-opacity="1.00" stroke-width="0.3"><path d="
M 514.00 326.00 
C 515.97 326.00 518.03 325.83 520.00 326.00
C 517.60 325.39 516.34 325.67 514.00 326.00 Z"/>
</g>
<g fill="None" fill-opacity="0.0" stroke="#095972" stroke-opacity="1.00" stroke-width="0.3"><path d="
M 502.00 330.00 
C 499.26 331.49 497.28 332.91 494.00 334.00
C 490.17 335.28 486.65 337.14 483.00 339.00
C 480.92 340.44 479.35 341.85 477.00 343.00
C 473.15 344.89 468.77 346.66 465.00 349.00
C 463.41 349.99 462.96 350.28 461.00 351.00
C 456.08 353.50 451.19 357.40 446.00 360.00
C 439.01 363.50 433.19 368.93 428.00 375.00
C 420.20 384.13 411.55 392.80 404.00 402.00
C 400.66 407.07 395.65 411.89 392.00 417.00
C 388.68 421.65 384.74 426.68 380.00 430.00
C 380.00 430.00 380.20 430.60 380.00 431.00
C 378.85 433.36 376.08 435.61 374.00 437.00
C 360.99 445.66 342.93 456.95 328.00 461.00
C 353.69 456.66 383.57 447.06 401.00 428.00
C 423.09 421.06 442.59 414.72 456.00 396.00
C 458.81 366.47 500.15 351.73 506.00 331.00
C 512.77 334.48 516.18 324.52 523.00 327.00
C 522.27 326.86 521.29 326.11 520.00 326.00
C 518.03 325.83 515.97 326.00 514.00 326.00
C 512.67 326.00 511.32 326.07 510.00 326.00
C 508.00 326.46 504.27 329.11 502.00 330.00 Z"/>
</g>
<g fill="None" fill-opacity="0.0" stroke="#114363" stroke-opacity="1.00" stroke-width="0.3"><path d="
M 328.00 461.00 
C 318.01 462.69 308.63 466.16 299.00 469.00
C 295.75 470.32 292.69 472.11 289.00 473.00
C 285.73 473.79 283.71 473.62 281.00 476.00
C 280.75 476.22 281.00 477.00 281.00 477.00
C 298.12 474.98 316.13 463.14 333.00 464.00
C 376.91 455.87 417.92 409.98 464.00 420.00
C 469.01 411.09 470.73 397.29 482.00 394.00
C 483.11 388.24 479.65 382.13 483.00 378.00
C 480.22 377.13 479.50 374.02 476.00 375.00
C 477.49 371.45 478.98 364.62 484.00 367.00
C 483.51 371.74 506.58 368.16 518.00 368.00 C 529.43 367.84 546.65 369.15 558.00 369.00
L 558.00 344.00
C 556.86 344.20 555.97 343.41 555.00 343.00
C 553.20 342.24 552.45 340.87 551.00 340.00
C 544.93 337.31 539.05 333.67 533.00 331.00
C 530.13 329.97 528.37 328.05 526.00 327.00
C 525.20 326.83 523.82 326.91 523.00 327.00
C 516.18 324.52 512.77 334.48 506.00 331.00
C 500.15 351.73 458.81 366.47 456.00 396.00
C 442.59 414.72 423.09 421.06 401.00 428.00
C 383.57 447.06 353.69 456.66 328.00 461.00 Z"/>
</g>
<g fill="None" fill-opacity="0.0" stroke="#7295A1" stroke-opacity="1.00" stroke-width="0.3"><path d="
M 533.00 331.00 
C 531.81 330.47 530.15 329.66 529.00 329.00
C 528.13 328.50 527.01 327.22 526.00 327.00
C 528.37 328.05 530.13 329.97 533.00 331.00 Z"/>
</g>
<g fill="None" fill-opacity="0.0" stroke="#AAC8C9" stroke-opacity="1.00" stroke-width="0.3"><path d="
M 533.00 331.00 
C 539.05 333.67 544.93 337.31 551.00 340.00
C 552.75 340.77 553.67 342.15 555.00 343.00
C 555.97 343.41 556.86 344.20 558.00 344.00
L 558.00 342.00
C 550.11 335.45 539.52 332.88 529.00 329.00
C 530.15 329.66 531.81 330.47 533.00 331.00 Z"/>
</g>
<g fill="None" fill-opacity="0.0" stroke="#639BA2" stroke-opacity="1.00" stroke-width="0.3"><path d="
M 494.00 334.00 
C 497.28 332.91 499.26 331.49 502.00 330.00
C 499.19 331.10 496.50 332.86 494.00 334.00 Z"/>
</g>
<g fill="None" fill-opacity="0.0" stroke="#E6E4CC" stroke-opacity="1.00" stroke-width="0.3"><path d="
M 374.00 346.00 
C 374.00 346.00 374.60 345.80 375.00 346.00
C 382.20 354.61 391.02 359.98 396.00 367.00
C 418.15 368.34 417.32 360.90 438.30 349.30 C 459.29 337.71 444.29 330.37 421.01 336.01 C 397.72 341.65 384.63 332.10 363.00 332.00
C 365.82 336.79 370.55 341.05 374.00 346.00 Z"/>
</g>
<g fill="None" fill-opacity="0.0" stroke="#3E8384" stroke-opacity="1.00" stroke-width="0.3"><path d="
M 477.00 343.00 
C 479.35 341.85 480.92 340.44 483.00 339.00
C 480.71 340.17 478.96 341.77 477.00 343.00 Z"/>
</g>
<g fill="None" fill-opacity="0.0" stroke="#61818E" stroke-opacity="1.00" stroke-width="0.3"><path d="
M 555.00 343.00 
C 553.67 342.15 552.75 340.77 551.00 340.00
C 552.45 340.87 553.20 342.24 555.00 343.00 Z"/>
</g>
<g fill="None" fill-opacity="0.0" stroke="#1B798C" stroke-opacity="1.00" stroke-width="0.3"><path d="
M 446.00 360.00 
C 451.19 357.40 456.08 353.50 461.00 351.00
C 455.63 352.98 450.50 356.98 446.00 360.00 Z"/>
</g>
<g fill="None" fill-opacity="0.0" stroke="#6DBDBA" stroke-opacity="1.00" stroke-width="0.3"><path d="
M 0.00 379.00 
C 4.34 382.66 8.30 387.01 14.00 388.00
C 14.19 392.01 15.60 395.77 15.00 400.00
C 55.12 420.90 99.23 439.00 142.00 450.00
C 117.82 432.25 89.06 412.64 56.00 415.00
C 66.93 398.99 80.22 371.06 58.00 361.00
C 39.02 357.18 20.27 352.67 0.00 354.00
L 0.00 379.00 Z"/>
</g>
<g fill="None" fill-opacity="0.0" stroke="#1A355A" stroke-opacity="1.00" stroke-width="0.3"><path d="
M 281.00 477.00 
C 280.51 477.06 280.00 477.00 280.00 477.00
C 274.44 479.91 267.40 483.84 264.00 489.00
C 259.53 485.35 254.57 494.30 249.00 495.00
C 248.64 495.23 248.00 495.00 248.00 495.00
C 239.61 503.21 224.21 504.76 218.00 511.00
C 203.44 512.69 185.69 516.31 169.00 516.00
C 170.82 509.97 158.17 514.32 154.00 513.00
C 154.02 515.17 157.87 517.78 154.00 519.00
C 153.78 519.37 154.00 520.00 154.00 520.00
C 152.84 523.97 147.36 525.30 144.00 526.00
C 149.94 527.51 145.03 546.39 136.00 541.00
C 139.66 560.05 131.11 587.83 136.00 606.00 C 140.89 624.17 122.64 656.20 145.00 662.00 C 167.36 667.80 161.29 638.07 162.00 618.00 C 162.71 597.93 159.29 575.81 162.00 553.00 C 164.71 530.19 164.06 572.43 165.00 589.00 C 165.94 605.57 161.16 637.97 165.00 654.00 C 168.84 670.03 201.90 654.61 218.00 656.00 C 234.10 657.39 258.00 649.31 276.00 649.00 C 294.00 648.69 318.08 643.33 337.00 644.00
C 370.15 644.00 430.58 643.00 458.00 624.00
C 475.16 612.11 504.58 609.41 505.00 583.00 C 505.42 556.59 504.83 523.13 507.00 497.00
C 509.26 526.61 507.66 558.07 510.00 588.00
C 513.37 587.10 515.11 583.62 518.00 582.00
C 520.15 580.50 522.82 578.86 525.00 577.00
C 550.80 549.09 524.82 497.03 537.00 463.00
C 538.83 495.52 539.39 530.47 541.00 560.00
C 545.71 556.05 553.61 553.36 558.00 548.00
L 558.00 462.00
C 546.54 457.19 533.68 455.20 542.00 439.00
C 544.51 439.80 547.19 440.28 550.00 440.00
C 550.53 435.36 550.26 432.28 549.00 428.00
C 551.26 427.25 552.98 425.55 553.00 423.00
C 521.94 420.03 533.95 377.25 558.00 376.00
L 558.00 369.00
C 546.65 369.15 529.43 367.84 518.00 368.00 C 506.58 368.16 483.51 371.74 484.00 367.00
C 478.98 364.62 477.49 371.45 476.00 375.00
C 479.50 374.02 480.22 377.13 483.00 378.00
C 479.65 382.13 483.11 388.24 482.00 394.00
C 470.73 397.29 469.01 411.09 464.00 420.00
C 417.92 409.98 376.91 455.87 333.00 464.00
C 316.13 463.14 298.12 474.98 281.00 477.00
M 547.00 423.00 
C 545.62 436.09 538.17 432.38 527.00 434.00
C 527.21 430.99 528.57 428.23 528.00 425.00
C 533.64 421.77 540.61 423.38 547.00 423.00
M 517.00 461.00 
C 517.46 464.11 512.97 463.07 512.00 465.00
C 512.17 469.21 518.87 470.38 518.00 475.00
C 509.62 474.72 502.66 465.94 494.00 469.00
C 492.78 466.83 491.58 464.66 492.00 462.00
C 500.29 464.08 508.25 460.04 517.00 461.00
M 492.00 471.00 
C 487.56 481.99 499.42 473.31 504.00 478.00
C 474.67 526.11 400.37 552.31 376.00 607.00
C 371.23 607.40 366.80 613.35 368.00 618.00
C 354.88 625.16 352.19 647.94 332.00 643.00
C 330.42 621.57 338.25 595.42 332.02 573.98 C 325.80 552.53 365.00 551.40 368.00 544.00
C 403.61 522.56 463.20 518.73 482.00 473.00
C 485.91 472.41 488.24 467.30 492.00 471.00
M 166.00 515.00 
C 176.22 517.74 175.60 526.99 163.78 525.22 C 151.96 523.46 155.87 512.28 166.00 515.00 Z"/>
</g>
<g fill="None" fill-opacity="0.0" stroke="#9ACDBC" stroke-opacity="1.00" stroke-width="0.3"><path d="
M 378.00 389.00 
C 378.00 389.00 377.94 388.49 378.00 388.00
C 377.55 384.48 383.44 385.00 382.00 381.00
C 356.65 378.70 331.47 375.49 308.00 367.00
C 316.94 383.23 361.54 406.57 378.00 389.00 Z"/>
</g>
<g fill="None" fill-opacity="0.0" stroke="#1F8295" stroke-opacity="1.00" stroke-width="0.3"><path d="
M 404.00 402.00 
C 411.55 392.80 420.20 384.13 428.00 375.00
C 419.69 383.31 410.27 392.48 404.00 402.00 Z"/>
</g>
<g fill="None" fill-opacity="0.0" stroke="#124162" stroke-opacity="1.00" stroke-width="0.3"><path d="
M 558.00 462.00 
L 558.00 376.00
C 533.95 377.25 521.94 420.03 553.00 423.00
C 552.98 425.55 551.26 427.25 549.00 428.00
C 550.26 432.28 550.53 435.36 550.00 440.00
C 547.19 440.28 544.51 439.80 542.00 439.00
C 533.68 455.20 546.54 457.19 558.00 462.00 Z"/>
</g>
<g fill="None" fill-opacity="0.0" stroke="#158A9B" stroke-opacity="1.00" stroke-width="0.3"><path d="
M 0.00 421.00 
C 16.13 424.89 15.71 453.63 0.00 437.00
L 0.00 492.00
C 4.47 490.81 8.44 488.03 13.00 487.00
C 13.28 485.72 12.24 483.50 14.00 483.00
C 14.44 481.72 14.34 481.99 15.00 481.00
C 15.23 480.65 15.00 480.00 15.00 480.00
C 15.96 477.33 18.58 475.76 19.00 473.00
C -4.36 466.84 33.85 468.86 35.00 460.00
C 34.84 463.96 35.39 463.98 37.00 461.00
C 39.24 464.92 43.50 461.31 47.00 461.00
C 54.71 472.54 75.20 461.84 90.02 467.98 C 104.85 474.11 122.89 475.21 139.00 477.00
C 89.26 466.34 32.26 450.46 15.00 400.00
C 15.60 395.77 14.19 392.01 14.00 388.00
C 8.30 387.01 4.34 382.66 0.00 379.00
L 0.00 421.00 Z"/>
</g>
<g fill="None" fill-opacity="0.0" stroke="#9ACCBB" stroke-opacity="1.00" stroke-width="0.3"><path d="
M 269.00 442.00 
C 276.76 441.58 283.49 436.51 290.00 433.00
C 293.61 422.65 332.06 414.36 299.01 412.99 C 265.95 411.62 228.36 406.66 197.00 406.00
C 209.59 411.96 220.35 422.32 232.00 429.00
C 236.24 445.19 255.89 442.71 269.00 442.00 Z"/>
</g>
<g fill="None" fill-opacity="0.0" stroke="#1D7D91" stroke-opacity="1.00" stroke-width="0.3"><path d="
M 380.00 430.00 
C 384.74 426.68 388.68 421.65 392.00 417.00
C 388.56 421.10 381.92 425.04 380.00 430.00 Z"/>
</g>
<g fill="None" fill-opacity="0.0" stroke="#3BA8B1" stroke-opacity="1.00" stroke-width="0.3"><path d="
M 0.00 437.00 
C 15.71 453.63 16.13 424.89 0.00 421.00
L 0.00 437.00 Z"/>
</g>
<g fill="None" fill-opacity="0.0" stroke="#26214F" stroke-opacity="1.00" stroke-width="0.3"><path d="
M 547.00 423.00 
C 540.61 423.38 533.64 421.77 528.00 425.00
C 528.57 428.23 527.21 430.99 527.00 434.00
C 538.17 432.38 545.62 436.09 547.00 423.00 Z"/>
</g>
<g fill="None" fill-opacity="0.0" stroke="#1D8092" stroke-opacity="1.00" stroke-width="0.3"><path d="
M 374.00 437.00 
C 376.08 435.61 378.85 433.36 380.00 431.00
C 377.70 432.61 376.14 435.33 374.00 437.00 Z"/>
</g>
<g fill="None" fill-opacity="0.0" stroke="#99CCBB" stroke-opacity="1.00" stroke-width="0.3"><path d="
M 152.00 454.00 
C 155.72 455.37 159.23 456.84 163.00 458.00
C 188.59 462.79 217.20 477.23 236.00 453.00
C 202.37 454.13 170.74 446.25 140.00 438.00
C 140.77 444.60 146.03 451.24 152.00 454.00 Z"/>
</g>
<g fill="None" fill-opacity="0.0" stroke="#0D647D" stroke-opacity="1.00" stroke-width="0.3"><path d="
M 15.00 480.00 
C 18.59 477.49 21.04 474.13 24.00 471.00
C 21.22 471.89 15.83 471.14 15.00 468.00
C 24.58 470.29 46.23 459.91 47.00 472.00
C 45.86 471.71 40.38 469.91 42.00 472.00
C 43.41 472.60 39.57 474.26 43.00 475.00
C 44.38 476.03 47.37 476.27 49.00 477.00
C 47.87 481.63 49.71 486.19 48.00 491.00
C 45.97 489.43 41.83 489.39 42.00 486.00
C 39.89 483.60 40.36 482.72 36.00 483.00
C 28.39 486.31 31.83 531.46 42.00 532.00
C 45.31 531.77 48.63 531.48 52.00 531.00
C 57.06 530.28 65.43 530.93 57.00 536.00
C 57.46 541.06 62.93 542.82 59.00 548.00
C 54.95 546.26 51.54 543.56 48.00 542.00
C 47.85 546.44 49.71 550.40 49.00 555.00
C 56.61 555.24 70.15 544.94 80.00 539.00
C 81.82 538.37 83.05 538.31 85.00 538.00
C 88.80 536.98 93.25 534.74 98.00 536.00
C 98.95 523.44 97.43 510.21 98.00 497.00
C 94.48 497.20 93.31 493.79 90.00 494.00
C 88.10 498.84 83.34 496.91 80.00 498.00
C 81.56 493.37 82.02 489.14 86.00 486.00
C 71.18 482.24 90.73 472.21 97.00 479.00
C 95.36 477.76 95.50 471.15 98.00 474.00
C 111.85 475.25 119.30 476.08 111.32 483.32 C 103.34 490.57 123.91 505.98 101.00 493.00
C 100.23 506.94 102.47 520.13 102.00 534.00
C 109.00 534.00 116.00 534.00 123.00 534.00
C 124.53 529.65 117.57 531.86 118.00 528.00
C 129.39 523.33 144.26 528.98 154.00 520.00
C 154.00 520.00 153.78 519.37 154.00 519.00
C 155.75 516.06 150.94 515.43 152.00 512.00
C 184.12 511.77 220.22 514.32 248.00 495.00
C 248.00 495.00 248.64 495.23 249.00 495.00
C 249.41 493.23 255.05 489.41 257.00 488.00
C 240.74 497.13 218.50 481.34 199.67 483.33 C 180.84 485.32 157.41 478.00 139.00 477.00
C 122.89 475.21 104.85 474.11 90.02 467.98 C 75.20 461.84 54.71 472.54 47.00 461.00
C 43.50 461.31 39.24 464.92 37.00 461.00
C 35.39 463.98 34.84 463.96 35.00 460.00
C 33.85 468.86 -4.36 466.84 19.00 473.00
C 18.58 475.76 15.96 477.33 15.00 480.00 Z"/>
</g>
<g fill="None" fill-opacity="0.0" stroke="#27204D" stroke-opacity="1.00" stroke-width="0.3"><path d="
M 517.00 461.00 
C 508.25 460.04 500.29 464.08 492.00 462.00
C 491.58 464.66 492.78 466.83 494.00 469.00
C 502.66 465.94 509.62 474.72 518.00 475.00
C 518.87 470.38 512.17 469.21 512.00 465.00
C 512.97 463.07 517.46 464.11 517.00 461.00 Z"/>
</g>
<g fill="None" fill-opacity="0.0" stroke="#202751" stroke-opacity="1.00" stroke-width="0.3"><path d="
M 525.00 577.00 
C 530.77 572.07 535.82 564.34 541.00 560.00
C 539.39 530.47 538.83 495.52 537.00 463.00
C 524.82 497.03 550.80 549.09 525.00 577.00 Z"/>
</g>
<g fill="None" fill-opacity="0.0" stroke="#1B345A" stroke-opacity="1.00" stroke-width="0.3"><path d="
M 15.00 480.00 
C 15.00 480.00 15.23 480.65 15.00 481.00
C 17.45 486.72 22.93 475.57 27.00 478.00
C 33.97 504.60 31.74 538.07 29.00 565.00
C 21.24 569.81 8.77 571.14 0.00 574.00
L 0.00 633.00
C 48.40 654.83 22.49 589.20 32.00 562.00
C 43.21 583.22 21.09 631.77 46.00 641.00
C 46.14 613.82 45.80 584.83 46.00 559.00
C 49.96 585.37 48.75 615.09 49.00 642.00
C 50.39 643.69 52.83 643.48 54.00 645.00
C 64.83 646.69 75.40 648.88 86.00 651.00
C 108.38 655.48 90.10 614.65 97.00 601.00 C 103.90 587.35 88.47 547.13 99.00 536.00
C 94.85 537.69 89.43 537.31 85.00 538.00
C 83.05 538.31 81.82 538.37 80.00 539.00
C 70.03 544.41 58.74 559.49 46.00 556.00
C 44.69 560.22 38.05 560.31 34.00 561.00
C 34.00 552.00 34.00 543.00 34.00 534.00
C 41.21 532.84 36.55 540.16 35.00 543.00
C 43.39 540.36 50.85 540.41 58.00 546.00
C 59.97 540.84 53.60 539.15 53.00 535.00
C 54.96 533.01 59.08 535.34 60.00 532.00
C 57.73 530.28 54.66 531.27 52.00 531.00
C 48.63 531.48 45.31 531.77 42.00 532.00
C 25.01 533.16 33.10 483.19 36.00 483.00
C 40.36 482.72 39.89 483.60 42.00 486.00
C 43.51 486.98 45.22 487.80 47.00 488.00
C 49.59 483.22 45.96 478.63 43.00 475.00
C 39.57 474.26 43.41 472.60 42.00 472.00
C 40.38 469.91 45.86 471.71 47.00 472.00
C 46.23 459.91 24.58 470.29 15.00 468.00
C 15.83 471.14 21.22 471.89 24.00 471.00
C 21.04 474.13 18.59 477.49 15.00 480.00
M 40.00 468.00 
C 39.43 470.78 35.52 469.19 35.00 472.00
C 39.54 475.08 48.60 479.48 45.00 486.00
C 42.17 480.73 33.52 475.31 30.00 480.00
C 27.90 474.62 23.82 476.89 20.00 478.00
C 25.34 471.41 31.44 468.35 40.00 468.00
M 68.00 562.00 
C 75.77 542.92 91.20 569.68 68.00 562.00 Z"/>
</g>
<g fill="None" fill-opacity="0.0" stroke="#242352" stroke-opacity="1.00" stroke-width="0.3"><path d="
M 40.00 468.00 
C 31.44 468.35 25.34 471.41 20.00 478.00
C 23.82 476.89 27.90 474.62 30.00 480.00
C 33.52 475.31 42.17 480.73 45.00 486.00
C 48.60 479.48 39.54 475.08 35.00 472.00
C 35.52 469.19 39.43 470.78 40.00 468.00 Z"/>
</g>
<g fill="None" fill-opacity="0.0" stroke="#216680" stroke-opacity="1.00" stroke-width="0.3"><path d="
M 289.00 473.00 
C 292.69 472.11 295.75 470.32 299.00 469.00
C 295.52 470.03 292.17 471.91 289.00 473.00 Z"/>
</g>
<g fill="None" fill-opacity="0.0" stroke="#124162" stroke-opacity="1.00" stroke-width="0.3"><path d="
M 492.00 471.00 
C 488.24 467.30 485.91 472.41 482.00 473.00
C 463.20 518.73 403.61 522.56 368.00 544.00
C 365.00 551.40 325.80 552.53 332.02 573.98 C 338.25 595.42 330.42 621.57 332.00 643.00
C 352.19 647.94 354.88 625.16 368.00 618.00
C 366.80 613.35 371.23 607.40 376.00 607.00
C 400.37 552.31 474.67 526.11 504.00 478.00
C 499.42 473.31 487.56 481.99 492.00 471.00 Z"/>
</g>
<g fill="None" fill-opacity="0.0" stroke="#154568" stroke-opacity="1.00" stroke-width="0.3"><path d="
M 85.00 538.00 
C 89.43 537.31 94.85 537.69 99.00 536.00
C 100.04 535.58 100.40 534.94 102.00 535.00
C 108.11 535.22 115.85 538.35 122.00 535.00
C 123.73 532.60 126.36 531.57 124.00 528.00
C 131.07 528.84 137.37 526.93 144.00 526.00
C 147.36 525.30 152.84 523.97 154.00 520.00
C 144.26 528.98 129.39 523.33 118.00 528.00
C 117.57 531.86 124.53 529.65 123.00 534.00
C 116.00 534.00 109.00 534.00 102.00 534.00
C 102.47 520.13 100.23 506.94 101.00 493.00
C 123.91 505.98 103.34 490.57 111.32 483.32 C 119.30 476.08 111.85 475.25 98.00 474.00
C 95.50 471.15 95.36 477.76 97.00 479.00
C 90.73 472.21 71.18 482.24 86.00 486.00
C 82.02 489.14 81.56 493.37 80.00 498.00
C 83.34 496.91 88.10 498.84 90.00 494.00
C 93.31 493.79 94.48 497.20 98.00 497.00
C 97.43 510.21 98.95 523.44 98.00 536.00
C 93.25 534.74 88.80 536.98 85.00 538.00
M 92.00 491.00 
C 91.52 490.90 90.50 490.98 90.00 491.00
C 87.61 492.63 87.49 497.90 83.00 496.00
C 84.42 489.04 90.91 484.12 82.00 481.00
C 86.58 474.84 98.60 484.52 99.00 478.00
C 103.16 480.80 112.59 474.31 113.00 482.00
C 101.03 482.39 113.30 490.24 113.00 496.00
C 105.84 490.37 98.50 493.39 92.00 491.00 Z"/>
</g>
<g fill="None" fill-opacity="0.0" stroke="#184D6F" stroke-opacity="1.00" stroke-width="0.3"><path d="
M 42.00 486.00 
C 41.83 489.39 45.97 489.43 48.00 491.00
C 49.71 486.19 47.87 481.63 49.00 477.00
C 47.37 476.27 44.38 476.03 43.00 475.00
C 45.96 478.63 49.59 483.22 47.00 488.00
C 45.22 487.80 43.51 486.98 42.00 486.00 Z"/>
</g>
<g fill="None" fill-opacity="0.0" stroke="#246E82" stroke-opacity="1.00" stroke-width="0.3"><path d="
M 274.00 478.00 
C 276.01 477.19 277.69 476.74 280.00 477.00
C 280.00 477.00 280.51 477.06 281.00 477.00
C 281.00 477.00 280.75 476.22 281.00 476.00
C 277.50 475.31 276.34 476.65 274.00 478.00 Z"/>
</g>
<g fill="None" fill-opacity="0.0" stroke="#0D4662" stroke-opacity="1.00" stroke-width="0.3"><path d="
M 274.00 478.00 
C 270.76 479.86 267.13 481.26 264.00 483.00
C 262.02 484.41 262.30 486.00 260.00 487.00
C 258.97 487.45 258.06 487.41 257.00 488.00
C 255.05 489.41 249.41 493.23 249.00 495.00
C 254.57 494.30 259.53 485.35 264.00 489.00
C 267.40 483.84 274.44 479.91 280.00 477.00
C 277.69 476.74 276.01 477.19 274.00 478.00 Z"/>
</g>
<g fill="None" fill-opacity="0.0" stroke="#114869" stroke-opacity="1.00" stroke-width="0.3"><path d="
M 15.00 481.00 
C 14.34 481.99 14.44 481.72 14.00 483.00
C 13.89 484.32 14.08 485.67 14.00 487.00
C 19.59 485.63 20.10 480.34 26.00 479.00
C 31.69 506.24 30.55 536.73 29.00 565.00
C 31.74 538.07 33.97 504.60 27.00 478.00
C 22.93 475.57 17.45 486.72 15.00 481.00 Z"/>
</g>
<g fill="None" fill-opacity="0.0" stroke="#1E2E58" stroke-opacity="1.00" stroke-width="0.3"><path d="
M 90.00 491.00 
C 88.74 491.05 86.49 491.53 86.00 490.00
C 89.99 488.19 92.36 485.26 93.00 481.00
C 98.65 486.62 104.39 477.70 111.00 480.00
C 104.20 481.51 106.97 487.27 108.00 492.00
C 102.74 490.28 97.35 488.05 92.00 491.00
C 98.50 493.39 105.84 490.37 113.00 496.00
C 113.30 490.24 101.03 482.39 113.00 482.00
C 112.59 474.31 103.16 480.80 99.00 478.00
C 98.60 484.52 86.58 474.84 82.00 481.00
C 90.91 484.12 84.42 489.04 83.00 496.00
C 87.49 497.90 87.61 492.63 90.00 491.00 Z"/>
</g>
<g fill="None" fill-opacity="0.0" stroke="#0A5F79" stroke-opacity="1.00" stroke-width="0.3"><path d="
M 14.00 483.00 
C 12.24 483.50 13.28 485.72 13.00 487.00
C 8.44 488.03 4.47 490.81 0.00 492.00
L 0.00 574.00
C 8.77 571.14 21.24 569.81 29.00 565.00
C 30.55 536.73 31.69 506.24 26.00 479.00
C 20.10 480.34 19.59 485.63 14.00 487.00
C 14.08 485.67 13.89 484.32 14.00 483.00 Z"/>
</g>
<g fill="None" fill-opacity="0.0" stroke="#27204F" stroke-opacity="1.00" stroke-width="0.3"><path d="
M 90.00 491.00 
C 90.50 490.98 91.52 490.90 92.00 491.00
C 97.35 488.05 102.74 490.28 108.00 492.00
C 106.97 487.27 104.20 481.51 111.00 480.00
C 104.39 477.70 98.65 486.62 93.00 481.00
C 92.36 485.26 89.99 488.19 86.00 490.00
C 86.49 491.53 88.74 491.05 90.00 491.00 Z"/>
</g>
<g fill="None" fill-opacity="0.0" stroke="#15496C" stroke-opacity="1.00" stroke-width="0.3"><path d="
M 42.00 532.00 
C 31.83 531.46 28.39 486.31 36.00 483.00
C 33.10 483.19 25.01 533.16 42.00 532.00 Z"/>
</g>
<g fill="None" fill-opacity="0.0" stroke="#297B91" stroke-opacity="1.00" stroke-width="0.3"><path d="
M 260.00 487.00 
C 262.30 486.00 262.02 484.41 264.00 483.00
C 262.08 484.07 261.82 485.77 260.00 487.00 Z"/>
</g>
<g fill="None" fill-opacity="0.0" stroke="#144667" stroke-opacity="1.00" stroke-width="0.3"><path d="
M 154.00 519.00 
C 157.87 517.78 154.02 515.17 154.00 513.00
C 158.17 514.32 170.82 509.97 169.00 516.00
C 185.69 516.31 203.44 512.69 218.00 511.00
C 224.21 504.76 239.61 503.21 248.00 495.00
C 220.22 514.32 184.12 511.77 152.00 512.00
C 150.94 515.43 155.75 516.06 154.00 519.00 Z"/>
</g>
<g fill="None" fill-opacity="0.0" stroke="#202750" stroke-opacity="1.00" stroke-width="0.3"><path d="
M 458.00 624.00 
C 476.38 617.30 497.60 608.19 507.00 589.00
C 512.06 590.28 515.30 585.33 518.00 582.00
C 515.11 583.62 513.37 587.10 510.00 588.00
C 507.66 558.07 509.26 526.61 507.00 497.00
C 504.83 523.13 505.42 556.59 505.00 583.00 C 504.58 609.41 475.16 612.11 458.00 624.00 Z"/>
</g>
<g fill="None" fill-opacity="0.0" stroke="#252753" stroke-opacity="1.00" stroke-width="0.3"><path d="
M 166.00 515.00 
C 155.87 512.28 151.96 523.46 163.78 525.22 C 175.60 526.99 176.22 517.74 166.00 515.00 Z"/>
</g>
<g fill="None" fill-opacity="0.0" stroke="#222752" stroke-opacity="1.00" stroke-width="0.3"><path d="
M 122.00 535.00 
C 120.87 536.56 120.31 538.55 119.00 540.00
C 140.58 541.19 128.66 572.90 131.00 592.00 C 133.34 611.10 129.25 638.17 131.00 658.00
C 97.06 664.13 100.92 636.46 102.00 611.00 C 103.08 585.54 101.19 560.43 102.00 535.00
C 100.40 534.94 100.04 535.58 99.00 536.00
C 88.47 547.13 103.90 587.35 97.00 601.00 C 90.10 614.65 108.38 655.48 86.00 651.00
C 155.83 684.77 260.92 651.36 337.00 644.00
C 318.08 643.33 294.00 648.69 276.00 649.00 C 258.00 649.31 234.10 657.39 218.00 656.00 C 201.90 654.61 168.84 670.03 165.00 654.00 C 161.16 637.97 165.94 605.57 165.00 589.00 C 164.06 572.43 164.71 530.19 162.00 553.00 C 159.29 575.81 162.71 597.93 162.00 618.00 C 161.29 638.07 167.36 667.80 145.00 662.00 C 122.64 656.20 140.89 624.17 136.00 606.00 C 131.11 587.83 139.66 560.05 136.00 541.00
C 145.03 546.39 149.94 527.51 144.00 526.00
C 137.37 526.93 131.07 528.84 124.00 528.00
C 126.36 531.57 123.73 532.60 122.00 535.00 Z"/>
</g>
<g fill="None" fill-opacity="0.0" stroke="#195272" stroke-opacity="1.00" stroke-width="0.3"><path d="
M 52.00 531.00 
C 54.66 531.27 57.73 530.28 60.00 532.00
C 59.08 535.34 54.96 533.01 53.00 535.00
C 53.60 539.15 59.97 540.84 58.00 546.00
C 50.85 540.41 43.39 540.36 35.00 543.00
C 36.55 540.16 41.21 532.84 34.00 534.00
C 34.00 543.00 34.00 552.00 34.00 561.00
C 38.05 560.31 44.69 560.22 46.00 556.00
C 58.74 559.49 70.03 544.41 80.00 539.00
C 70.15 544.94 56.61 555.24 49.00 555.00
C 49.71 550.40 47.85 546.44 48.00 542.00
C 51.54 543.56 54.95 546.26 59.00 548.00
C 62.93 542.82 57.46 541.06 57.00 536.00
C 65.43 530.93 57.06 530.28 52.00 531.00
M 46.00 543.00 
C 47.97 552.30 44.91 560.06 35.00 560.00
C 34.28 554.73 36.56 550.24 36.00 545.00
C 39.64 544.48 41.62 540.79 46.00 543.00 Z"/>
</g>
<g fill="None" fill-opacity="0.0" stroke="#1B345A" stroke-opacity="1.00" stroke-width="0.3"><path d="
M 122.00 535.00 
C 115.85 538.35 108.11 535.22 102.00 535.00
C 101.19 560.43 103.08 585.54 102.00 611.00 C 100.92 636.46 97.06 664.13 131.00 658.00
C 129.25 638.17 133.34 611.10 131.00 592.00 C 128.66 572.90 140.58 541.19 119.00 540.00
C 120.31 538.55 120.87 536.56 122.00 535.00 Z"/>
</g>
<g fill="None" fill-opacity="0.0" stroke="#15647E" stroke-opacity="1.00" stroke-width="0.3"><path d="
M 46.00 543.00 
C 41.62 540.79 39.64 544.48 36.00 545.00
C 36.56 550.24 34.28 554.73 35.00 560.00
C 44.91 560.06 47.97 552.30 46.00 543.00 Z"/>
</g>
<g fill="None" fill-opacity="0.0" stroke="#2F123E" stroke-opacity="1.00" stroke-width="0.3"><path d="
M 541.00 560.00 
C 535.82 564.34 530.77 572.07 525.00 577.00
C 522.82 578.86 520.15 580.50 518.00 582.00
C 515.30 585.33 512.06 590.28 507.00 589.00
C 497.60 608.19 476.38 617.30 458.00 624.00
C 430.58 643.00 370.15 644.00 337.00 644.00
C 260.92 651.36 155.83 684.77 86.00 651.00
C 75.40 648.88 64.83 646.69 54.00 645.00
C 46.96 643.90 35.93 644.19 32.00 638.00
C 21.31 640.44 10.43 635.79 0.00 634.00
L 0.00 1497.00
L 558.00 1497.00
L 558.00 548.00
C 553.61 553.36 545.71 556.05 541.00 560.00 Z"/>
</g>
<g fill="None" fill-opacity="0.0" stroke="#291F50" stroke-opacity="1.00" stroke-width="0.3"><path d="
M 68.00 562.00 
C 91.20 569.68 75.77 542.92 68.00 562.00 Z"/>
</g>
<g fill="None" fill-opacity="0.0" stroke="#212651" stroke-opacity="1.00" stroke-width="0.3"><path d="
M 0.00 633.00 
L 0.00 634.00
C 10.43 635.79 21.31 640.44 32.00 638.00
C 35.93 644.19 46.96 643.90 54.00 645.00
C 52.83 643.48 50.39 643.69 49.00 642.00
C 48.75 615.09 49.96 585.37 46.00 559.00
C 45.80 584.83 46.14 613.82 46.00 641.00
C 21.09 631.77 43.21 583.22 32.00 562.00
C 22.49 589.20 48.40 654.83 0.00 633.00 Z"/>
</g>
<g fill="#EBE4CA" fill-opacity="1.00" stroke="None">
<path d="
M 0.00 88.00 
C 25.48 74.90 55.21 93.18 79.01 99.99 C 102.81 106.81 134.69 93.49 147.00 125.00
C 156.58 122.99 166.08 128.50 176.00 128.00
C 192.49 140.92 208.00 134.30 232.00 139.00 C 256.00 143.70 258.22 128.43 261.00 111.00
C 260.79 106.21 262.46 102.56 264.00 98.00
C 268.65 98.35 271.76 95.21 273.00 91.00
C 285.78 82.31 306.44 85.39 320.00 90.00
C 318.17 94.12 326.72 91.55 324.00 96.00
C 346.99 103.41 351.00 62.23 378.00 69.00
C 380.11 81.57 404.00 70.23 400.00 86.00
C 402.16 73.28 421.50 83.50 433.23 77.23 C 444.95 70.96 456.49 75.27 468.00 69.00
C 471.50 61.56 478.23 54.31 477.00 46.00
C 500.83 35.60 513.02 16.25 531.00 0.00
L 0.00 0.00
L 0.00 88.00 Z"/>
</g>
<g fill="#FDE5D1" fill-opacity="1.00" stroke="None">
<path d="
M 0.00 88.00 
L 0.00 251.00
C 1.51 251.65 2.80 252.24 4.00 253.00
C 30.55 264.14 49.93 265.68 74.00 249.00
C 95.75 233.93 107.56 219.00 133.00 206.00
C 154.74 194.89 161.57 211.50 174.00 228.00
C 177.84 223.99 183.82 222.17 186.00 217.00
C 208.62 215.25 207.99 252.66 230.00 253.00
C 232.41 253.13 233.81 253.30 236.00 254.00
C 257.75 260.95 256.76 298.11 288.00 287.00
C 311.92 278.49 337.46 278.82 363.00 272.00
C 382.10 264.41 390.85 232.97 411.30 226.30 C 431.76 219.64 463.16 201.87 481.11 215.89 C 499.05 229.91 537.82 229.41 558.00 221.00
L 558.00 0.00
L 531.00 0.00
C 513.02 16.25 500.83 35.60 477.00 46.00
C 478.23 54.31 471.50 61.56 468.00 69.00
C 456.49 75.27 444.95 70.96 433.23 77.23 C 421.50 83.50 402.16 73.28 400.00 86.00
C 404.00 70.23 380.11 81.57 378.00 69.00
C 351.00 62.23 346.99 103.41 324.00 96.00
C 326.72 91.55 318.17 94.12 320.00 90.00
C 306.44 85.39 285.78 82.31 273.00 91.00
C 271.76 95.21 268.65 98.35 264.00 98.00
C 262.46 102.56 260.79 106.21 261.00 111.00
C 258.22 128.43 256.00 143.70 232.00 139.00 C 208.00 134.30 192.49 140.92 176.00 128.00
C 166.08 128.50 156.58 122.99 147.00 125.00
C 134.69 93.49 102.81 106.81 79.01 99.99 C 55.21 93.18 25.48 74.90 0.00 88.00 Z"/>
</g>
<g fill="#EBE9DD" fill-opacity="1.00" stroke="None">
<path d="
M 133.00 206.00 
C 148.14 200.48 161.07 206.00 167.00 223.00
C 167.51 223.55 167.63 224.41 168.00 225.00
C 169.47 226.36 172.11 228.35 174.00 230.00
C 175.93 229.34 176.67 226.61 179.00 227.00
C 179.26 226.76 179.67 226.17 180.00 226.00
C 196.78 204.45 212.89 252.10 230.00 253.00
C 207.99 252.66 208.62 215.25 186.00 217.00
C 183.82 222.17 177.84 223.99 174.00 228.00
C 161.57 211.50 154.74 194.89 133.00 206.00 Z"/>
</g>
<g fill="#C6E1DB" fill-opacity="1.00" stroke="None">
<path d="
M 133.00 206.00 
C 107.56 219.00 95.75 233.93 74.00 249.00
C 71.79 250.80 69.98 254.02 68.00 256.00
C 68.94 255.29 70.10 254.68 71.00 254.00
C 92.60 237.67 92.91 228.76 117.08 216.08 C 141.26 203.41 146.93 201.40 167.00 223.00
C 161.07 206.00 148.14 200.48 133.00 206.00 Z"/>
</g>
<g fill="#38A3AC" fill-opacity="1.00" stroke="None">
<path d="
M 71.00 254.00 
C 61.17 264.43 42.00 268.51 28.00 266.00
C 17.72 264.16 9.19 258.43 0.00 254.00
L 0.00 354.00
C 20.27 352.67 39.02 357.18 58.00 361.00
C 80.22 371.06 66.93 398.99 56.00 415.00
C 89.06 412.64 117.82 432.25 142.00 450.00
C 99.23 439.00 55.12 420.90 15.00 400.00
C 32.26 450.46 89.26 466.34 139.00 477.00
C 157.41 478.00 180.84 485.32 199.67 483.33 C 218.50 481.34 240.74 497.13 257.00 488.00
C 258.06 487.41 258.97 487.45 260.00 487.00
C 261.82 485.77 262.08 484.07 264.00 483.00
C 267.13 481.26 270.76 479.86 274.00 478.00
C 276.34 476.65 277.50 475.31 281.00 476.00
C 283.71 473.62 285.73 473.79 289.00 473.00
C 292.17 471.91 295.52 470.03 299.00 469.00
C 308.63 466.16 318.01 462.69 328.00 461.00
C 342.93 456.95 360.99 445.66 374.00 437.00
C 376.14 435.33 377.70 432.61 380.00 431.00
C 380.20 430.60 380.00 430.00 380.00 430.00
C 381.92 425.04 388.56 421.10 392.00 417.00
C 395.65 411.89 400.66 407.07 404.00 402.00
C 410.27 392.48 419.69 383.31 428.00 375.00
C 433.19 368.93 439.01 363.50 446.00 360.00
C 450.50 356.98 455.63 352.98 461.00 351.00
C 462.96 350.28 463.41 349.99 465.00 349.00
C 458.81 349.78 452.22 342.91 446.00 345.00
C 432.66 356.74 419.20 363.80 404.00 372.00
C 395.54 376.57 387.01 384.67 378.00 388.00
C 377.94 388.49 378.00 389.00 378.00 389.00
C 371.64 402.01 351.08 412.68 335.78 412.78 C 320.47 412.87 303.60 425.66 290.00 433.00
C 283.49 436.51 276.76 441.58 269.00 442.00
C 250.86 444.95 237.85 458.60 220.77 465.77 C 203.69 472.94 178.52 465.18 163.00 458.00
C 159.23 456.84 155.72 455.37 152.00 454.00
C 125.78 444.32 104.39 409.03 89.25 386.75 C 74.11 364.48 53.72 335.35 30.00 316.00
C 99.04 338.69 179.96 324.30 251.00 340.00
C 247.82 310.31 206.31 320.86 199.00 292.00
C 225.43 297.21 253.49 303.88 281.00 300.00
C 273.64 295.20 266.48 290.57 260.00 284.00
C 242.04 273.78 236.76 257.58 216.98 253.02 C 197.19 248.47 209.17 210.90 180.00 226.00
C 179.67 226.17 179.26 226.76 179.00 227.00
C 177.10 228.75 174.65 231.47 172.00 232.00
C 170.84 229.53 169.61 227.19 168.00 225.00
C 167.63 224.41 167.51 223.55 167.00 223.00
C 146.93 201.40 141.26 203.41 117.08 216.08 C 92.91 228.76 92.60 237.67 71.00 254.00 Z"/>
</g>
<g fill="#E6E4D3" fill-opacity="1.00" stroke="None">
<path d="
M 363.00 272.00 
C 367.91 270.69 373.98 264.14 378.00 261.00
C 388.61 250.18 397.17 245.04 407.25 233.25 C 417.32 221.46 436.68 228.54 448.00 217.00
C 448.17 216.67 448.78 216.26 449.00 216.00
C 465.72 196.62 477.97 221.81 493.75 226.25 C 509.54 230.69 541.41 228.89 558.00 225.00
L 558.00 221.00
C 537.82 229.41 499.05 229.91 481.11 215.89 C 463.16 201.87 431.76 219.64 411.30 226.30 C 390.85 232.97 382.10 264.41 363.00 272.00 Z"/>
</g>
<g fill="#ABCCBE" fill-opacity="1.00" stroke="None">
<path d="
M 449.00 216.00 
C 456.34 213.78 464.37 214.41 471.00 210.00
C 476.74 216.71 482.66 224.17 491.00 228.00
C 470.71 232.31 440.80 229.17 418.00 230.00
C 425.06 222.26 444.38 231.32 448.00 217.00
C 436.68 228.54 417.32 221.46 407.25 233.25 C 397.17 245.04 388.61 250.18 378.00 261.00
C 370.48 268.67 362.77 277.65 350.00 275.00
C 368.96 290.33 403.03 277.65 429.00 281.00
C 432.24 287.61 445.71 282.28 453.00 284.00
C 469.02 268.22 510.26 281.26 536.00 277.00
C 532.50 281.45 526.21 282.54 521.00 285.00
C 532.09 288.79 545.76 287.00 558.00 288.00
L 558.00 225.00
C 541.41 228.89 509.54 230.69 493.75 226.25 C 477.97 221.81 465.72 196.62 449.00 216.00 Z"/>
</g>
<g fill="#8AC3BA" fill-opacity="1.00" stroke="None">
<path d="
M 449.00 216.00 
C 448.78 216.26 448.17 216.67 448.00 217.00
C 444.38 231.32 425.06 222.26 418.00 230.00
C 440.80 229.17 470.71 232.31 491.00 228.00
C 482.66 224.17 476.74 216.71 471.00 210.00
C 464.37 214.41 456.34 213.78 449.00 216.00 Z"/>
</g>
<g fill="#C2D5C3" fill-opacity="1.00" stroke="None">
<path d="
M 180.00 226.00 
C 209.17 210.90 197.19 248.47 216.98 253.02 C 236.76 257.58 242.04 273.78 260.00 284.00
C 278.35 294.45 293.34 308.85 311.00 319.00
C 316.57 315.18 323.07 312.90 330.00 312.00
C 337.43 330.84 363.75 327.67 374.00 346.00
C 370.55 341.05 365.82 336.79 363.00 332.00
C 384.63 332.10 397.72 341.65 421.01 336.01 C 444.29 330.37 459.29 337.71 438.30 349.30 C 417.32 360.90 418.15 368.34 396.00 367.00
C 391.02 359.98 382.20 354.61 375.00 346.00
C 380.33 353.62 392.73 372.64 404.00 372.00
C 419.20 363.80 432.66 356.74 446.00 345.00
C 459.72 332.92 494.43 325.12 510.00 326.00
C 511.32 326.07 512.67 326.00 514.00 326.00
C 516.34 325.67 517.60 325.39 520.00 326.00
C 521.29 326.11 522.27 326.86 523.00 327.00
C 523.82 326.91 525.20 326.83 526.00 327.00
C 527.01 327.22 528.13 328.50 529.00 329.00
C 539.52 332.88 550.11 335.45 558.00 342.00
L 558.00 288.00
C 545.76 287.00 532.09 288.79 521.00 285.00
C 526.21 282.54 532.50 281.45 536.00 277.00
C 510.26 281.26 469.02 268.22 453.00 284.00
C 445.71 282.28 432.24 287.61 429.00 281.00
C 403.03 277.65 368.96 290.33 350.00 275.00
C 362.77 277.65 370.48 268.67 378.00 261.00
C 373.98 264.14 367.91 270.69 363.00 272.00
C 337.46 278.82 311.92 278.49 288.00 287.00
C 257.87 301.57 256.19 266.09 236.00 254.00
C 233.81 253.30 232.41 253.13 230.00 253.00
C 212.89 252.10 196.78 204.45 180.00 226.00 Z"/>
</g>
<g fill="#C7E3DD" fill-opacity="1.00" stroke="None">
<path d="
M 179.00 227.00 
C 176.67 226.61 175.93 229.34 174.00 230.00
C 172.11 228.35 169.47 226.36 168.00 225.00
C 169.61 227.19 170.84 229.53 172.00 232.00
C 174.65 231.47 177.10 228.75 179.00 227.00 Z"/>
</g>
<g fill="#E8E9DD" fill-opacity="1.00" stroke="None">
<path d="
M 4.00 253.00 
C 13.98 259.32 23.35 264.48 36.00 264.00
C 47.77 263.55 58.77 262.98 68.00 256.00
C 69.98 254.02 71.79 250.80 74.00 249.00
C 49.93 265.68 30.55 264.14 4.00 253.00 Z"/>
</g>
<g fill="#C5E2DD" fill-opacity="1.00" stroke="None">
<path d="
M 0.00 254.00 
C 9.19 258.43 17.72 264.16 28.00 266.00
C 31.76 266.18 33.47 264.66 36.00 264.00
C 23.35 264.48 13.98 259.32 4.00 253.00
C 2.80 252.24 1.51 251.65 0.00 251.00
L 0.00 254.00 Z"/>
</g>
<g fill="#8EB8B5" fill-opacity="1.00" stroke="None">
<path d="
M 68.00 256.00 
C 58.77 262.98 47.77 263.55 36.00 264.00
C 33.47 264.66 31.76 266.18 28.00 266.00
C 42.00 268.51 61.17 264.43 71.00 254.00
C 70.10 254.68 68.94 255.29 68.00 256.00 Z"/>
</g>
<g fill="#E9E6D8" fill-opacity="1.00" stroke="None">
<path d="
M 288.00 287.00 
C 256.76 298.11 257.75 260.95 236.00 254.00
C 256.19 266.09 257.87 301.57 288.00 287.00 Z"/>
</g>
<g fill="#73BDB9" fill-opacity="1.00" stroke="None">
<path d="
M 152.00 454.00 
C 146.03 451.24 140.77 444.60 140.00 438.00
C 170.74 446.25 202.37 454.13 236.00 453.00
C 217.20 477.23 188.59 462.79 163.00 458.00
C 178.52 465.18 203.69 472.94 220.77 465.77 C 237.85 458.60 250.86 444.95 269.00 442.00
C 255.89 442.71 236.24 445.19 232.00 429.00
C 220.35 422.32 209.59 411.96 197.00 406.00
C 228.36 406.66 265.95 411.62 299.01 412.99 C 332.06 414.36 293.61 422.65 290.00 433.00
C 303.60 425.66 320.47 412.87 335.78 412.78 C 351.08 412.68 371.64 402.01 378.00 389.00
C 361.54 406.57 316.94 383.23 308.00 367.00
C 331.47 375.49 356.65 378.70 382.00 381.00
C 383.44 385.00 377.55 384.48 378.00 388.00
C 387.01 384.67 395.54 376.57 404.00 372.00
C 392.73 372.64 380.33 353.62 375.00 346.00
C 374.60 345.80 374.00 346.00 374.00 346.00
C 363.75 327.67 337.43 330.84 330.00 312.00
C 323.07 312.90 316.57 315.18 311.00 319.00
C 293.34 308.85 278.35 294.45 260.00 284.00
C 266.48 290.57 273.64 295.20 281.00 300.00
C 253.49 303.88 225.43 297.21 199.00 292.00
C 206.31 320.86 247.82 310.31 251.00 340.00
C 179.96 324.30 99.04 338.69 30.00 316.00
C 53.72 335.35 74.11 364.48 89.25 386.75 C 104.39 409.03 125.78 444.32 152.00 454.00 Z"/>
</g>
<g fill="#98CBB9" fill-opacity="1.00" stroke="None">
<path d="
M 446.00 345.00 
C 452.22 342.91 458.81 349.78 465.00 349.00
C 468.77 346.66 473.15 344.89 477.00 343.00
C 478.96 341.77 480.71 340.17 483.00 339.00
C 486.65 337.14 490.17 335.28 494.00 334.00
C 496.50 332.86 499.19 331.10 502.00 330.00
C 504.27 329.11 508.00 326.46 510.00 326.00
C 494.43 325.12 459.72 332.92 446.00 345.00 Z"/>
</g>
<g fill="#668B8D" fill-opacity="1.00" stroke="None">
<path d="
M 514.00 326.00 
C 515.97 326.00 518.03 325.83 520.00 326.00
C 517.60 325.39 516.34 325.67 514.00 326.00 Z"/>
</g>
<g fill="#095972" fill-opacity="1.00" stroke="None">
<path d="
M 502.00 330.00 
C 499.26 331.49 497.28 332.91 494.00 334.00
C 490.17 335.28 486.65 337.14 483.00 339.00
C 480.92 340.44 479.35 341.85 477.00 343.00
C 473.15 344.89 468.77 346.66 465.00 349.00
C 463.41 349.99 462.96 350.28 461.00 351.00
C 456.08 353.50 451.19 357.40 446.00 360.00
C 439.01 363.50 433.19 368.93 428.00 375.00
C 420.20 384.13 411.55 392.80 404.00 402.00
C 400.66 407.07 395.65 411.89 392.00 417.00
C 388.68 421.65 384.74 426.68 380.00 430.00
C 380.00 430.00 380.20 430.60 380.00 431.00
C 378.85 433.36 376.08 435.61 374.00 437.00
C 360.99 445.66 342.93 456.95 328.00 461.00
C 353.69 456.66 383.57 447.06 401.00 428.00
C 423.09 421.06 442.59 414.72 456.00 396.00
C 458.81 366.47 500.15 351.73 506.00 331.00
C 512.77 334.48 516.18 324.52 523.00 327.00
C 522.27 326.86 521.29 326.11 520.00 326.00
C 518.03 325.83 515.97 326.00 514.00 326.00
C 512.67 326.00 511.32 326.07 510.00 326.00
C 508.00 326.46 504.27 329.11 502.00 330.00 Z"/>
</g>
<g fill="#114363" fill-opacity="1.00" stroke="None">
<path d="
M 328.00 461.00 
C 318.01 462.69 308.63 466.16 299.00 469.00
C 295.75 470.32 292.69 472.11 289.00 473.00
C 285.73 473.79 283.71 473.62 281.00 476.00
C 280.75 476.22 281.00 477.00 281.00 477.00
C 298.12 474.98 316.13 463.14 333.00 464.00
C 376.91 455.87 417.92 409.98 464.00 420.00
C 469.01 411.09 470.73 397.29 482.00 394.00
C 483.11 388.24 479.65 382.13 483.00 378.00
C 480.22 377.13 479.50 374.02 476.00 375.00
C 477.49 371.45 478.98 364.62 484.00 367.00
C 483.51 371.74 506.58 368.16 518.00 368.00 C 529.43 367.84 546.65 369.15 558.00 369.00
L 558.00 344.00
C 556.86 344.20 555.97 343.41 555.00 343.00
C 553.20 342.24 552.45 340.87 551.00 340.00
C 544.93 337.31 539.05 333.67 533.00 331.00
C 530.13 329.97 528.37 328.05 526.00 327.00
C 525.20 326.83 523.82 326.91 523.00 327.00
C 516.18 324.52 512.77 334.48 506.00 331.00
C 500.15 351.73 458.81 366.47 456.00 396.00
C 442.59 414.72 423.09 421.06 401.00 428.00
C 383.57 447.06 353.69 456.66 328.00 461.00 Z"/>
</g>
<g fill="#7295A1" fill-opacity="1.00" stroke="None">
<path d="
M 533.00 331.00 
C 531.81 330.47 530.15 329.66 529.00 329.00
C 528.13 328.50 527.01 327.22 526.00 327.00
C 528.37 328.05 530.13 329.97 533.00 331.00 Z"/>
</g>
<g fill="#AAC8C9" fill-opacity="1.00" stroke="None">
<path d="
M 533.00 331.00 
C 539.05 333.67 544.93 337.31 551.00 340.00
C 552.75 340.77 553.67 342.15 555.00 343.00
C 555.97 343.41 556.86 344.20 558.00 344.00
L 558.00 342.00
C 550.11 335.45 539.52 332.88 529.00 329.00
C 530.15 329.66 531.81 330.47 533.00 331.00 Z"/>
</g>
<g fill="#639BA2" fill-opacity="1.00" stroke="None">
<path d="
M 494.00 334.00 
C 497.28 332.91 499.26 331.49 502.00 330.00
C 499.19 331.10 496.50 332.86 494.00 334.00 Z"/>
</g>
<g fill="#E6E4CC" fill-opacity="1.00" stroke="None">
<path d="
M 374.00 346.00 
C 374.00 346.00 374.60 345.80 375.00 346.00
C 382.20 354.61 391.02 359.98 396.00 367.00
C 418.15 368.34 417.32 360.90 438.30 349.30 C 459.29 337.71 444.29 330.37 421.01 336.01 C 397.72 341.65 384.63 332.10 363.00 332.00
C 365.82 336.79 370.55 341.05 374.00 346.00 Z"/>
</g>
<g fill="#3E8384" fill-opacity="1.00" stroke="None">
<path d="
M 477.00 343.00 
C 479.35 341.85 480.92 340.44 483.00 339.00
C 480.71 340.17 478.96 341.77 477.00 343.00 Z"/>
</g>
<g fill="#61818E" fill-opacity="1.00" stroke="None">
<path d="
M 555.00 343.00 
C 553.67 342.15 552.75 340.77 551.00 340.00
C 552.45 340.87 553.20 342.24 555.00 343.00 Z"/>
</g>
<g fill="#1B798C" fill-opacity="1.00" stroke="None">
<path d="
M 446.00 360.00 
C 451.19 357.40 456.08 353.50 461.00 351.00
C 455.63 352.98 450.50 356.98 446.00 360.00 Z"/>
</g>
<g fill="#6DBDBA" fill-opacity="1.00" stroke="None">
<path d="
M 0.00 379.00 
C 4.34 382.66 8.30 387.01 14.00 388.00
C 14.19 392.01 15.60 395.77 15.00 400.00
C 55.12 420.90 99.23 439.00 142.00 450.00
C 117.82 432.25 89.06 412.64 56.00 415.00
C 66.93 398.99 80.22 371.06 58.00 361.00
C 39.02 357.18 20.27 352.67 0.00 354.00
L 0.00 379.00 Z"/>
</g>
<g fill="#1A355A" fill-opacity="1.00" stroke="None">
<path d="
M 281.00 477.00 
C 280.51 477.06 280.00 477.00 280.00 477.00
C 274.44 479.91 267.40 483.84 264.00 489.00
C 259.53 485.35 254.57 494.30 249.00 495.00
C 248.64 495.23 248.00 495.00 248.00 495.00
C 239.61 503.21 224.21 504.76 218.00 511.00
C 203.44 512.69 185.69 516.31 169.00 516.00
C 170.82 509.97 158.17 514.32 154.00 513.00
C 154.02 515.17 157.87 517.78 154.00 519.00
C 153.78 519.37 154.00 520.00 154.00 520.00
C 152.84 523.97 147.36 525.30 144.00 526.00
C 149.94 527.51 145.03 546.39 136.00 541.00
C 139.66 560.05 131.11 587.83 136.00 606.00 C 140.89 624.17 122.64 656.20 145.00 662.00 C 167.36 667.80 161.29 638.07 162.00 618.00 C 162.71 597.93 159.29 575.81 162.00 553.00 C 164.71 530.19 164.06 572.43 165.00 589.00 C 165.94 605.57 161.16 637.97 165.00 654.00 C 168.84 670.03 201.90 654.61 218.00 656.00 C 234.10 657.39 258.00 649.31 276.00 649.00 C 294.00 648.69 318.08 643.33 337.00 644.00
C 370.15 644.00 430.58 643.00 458.00 624.00
C 475.16 612.11 504.58 609.41 505.00 583.00 C 505.42 556.59 504.83 523.13 507.00 497.00
C 509.26 526.61 507.66 558.07 510.00 588.00
C 513.37 587.10 515.11 583.62 518.00 582.00
C 520.15 580.50 522.82 578.86 525.00 577.00
C 550.80 549.09 524.82 497.03 537.00 463.00
C 538.83 495.52 539.39 530.47 541.00 560.00
C 545.71 556.05 553.61 553.36 558.00 548.00
L 558.00 462.00
C 546.54 457.19 533.68 455.20 542.00 439.00
C 544.51 439.80 547.19 440.28 550.00 440.00
C 550.53 435.36 550.26 432.28 549.00 428.00
C 551.26 427.25 552.98 425.55 553.00 423.00
C 521.94 420.03 533.95 377.25 558.00 376.00
L 558.00 369.00
C 546.65 369.15 529.43 367.84 518.00 368.00 C 506.58 368.16 483.51 371.74 484.00 367.00
C 478.98 364.62 477.49 371.45 476.00 375.00
C 479.50 374.02 480.22 377.13 483.00 378.00
C 479.65 382.13 483.11 388.24 482.00 394.00
C 470.73 397.29 469.01 411.09 464.00 420.00
C 417.92 409.98 376.91 455.87 333.00 464.00
C 316.13 463.14 298.12 474.98 281.00 477.00
M 547.00 423.00 
C 545.62 436.09 538.17 432.38 527.00 434.00
C 527.21 430.99 528.57 428.23 528.00 425.00
C 533.64 421.77 540.61 423.38 547.00 423.00
M 517.00 461.00 
C 517.46 464.11 512.97 463.07 512.00 465.00
C 512.17 469.21 518.87 470.38 518.00 475.00
C 509.62 474.72 502.66 465.94 494.00 469.00
C 492.78 466.83 491.58 464.66 492.00 462.00
C 500.29 464.08 508.25 460.04 517.00 461.00
M 492.00 471.00 
C 487.56 481.99 499.42 473.31 504.00 478.00
C 474.67 526.11 400.37 552.31 376.00 607.00
C 371.23 607.40 366.80 613.35 368.00 618.00
C 354.88 625.16 352.19 647.94 332.00 643.00
C 330.42 621.57 338.25 595.42 332.02 573.98 C 325.80 552.53 365.00 551.40 368.00 544.00
C 403.61 522.56 463.20 518.73 482.00 473.00
C 485.91 472.41 488.24 467.30 492.00 471.00
M 166.00 515.00 
C 176.22 517.74 175.60 526.99 163.78 525.22 C 151.96 523.46 155.87 512.28 166.00 515.00 Z"/>
</g>
<g fill="#9ACDBC" fill-opacity="1.00" stroke="None">
<path d="
M 378.00 389.00 
C 378.00 389.00 377.94 388.49 378.00 388.00
C 377.55 384.48 383.44 385.00 382.00 381.00
C 356.65 378.70 331.47 375.49 308.00 367.00
C 316.94 383.23 361.54 406.57 378.00 389.00 Z"/>
</g>
<g fill="#1F8295" fill-opacity="1.00" stroke="None">
<path d="
M 404.00 402.00 
C 411.55 392.80 420.20 384.13 428.00 375.00
C 419.69 383.31 410.27 392.48 404.00 402.00 Z"/>
</g>
<g fill="#124162" fill-opacity="1.00" stroke="None">
<path d="
M 558.00 462.00 
L 558.00 376.00
C 533.95 377.25 521.94 420.03 553.00 423.00
C 552.98 425.55 551.26 427.25 549.00 428.00
C 550.26 432.28 550.53 435.36 550.00 440.00
C 547.19 440.28 544.51 439.80 542.00 439.00
C 533.68 455.20 546.54 457.19 558.00 462.00 Z"/>
</g>
<g fill="#158A9B" fill-opacity="1.00" stroke="None">
<path d="
M 0.00 421.00 
C 16.13 424.89 15.71 453.63 0.00 437.00
L 0.00 492.00
C 4.47 490.81 8.44 488.03 13.00 487.00
C 13.28 485.72 12.24 483.50 14.00 483.00
C 14.44 481.72 14.34 481.99 15.00 481.00
C 15.23 480.65 15.00 480.00 15.00 480.00
C 15.96 477.33 18.58 475.76 19.00 473.00
C -4.36 466.84 33.85 468.86 35.00 460.00
C 34.84 463.96 35.39 463.98 37.00 461.00
C 39.24 464.92 43.50 461.31 47.00 461.00
C 54.71 472.54 75.20 461.84 90.02 467.98 C 104.85 474.11 122.89 475.21 139.00 477.00
C 89.26 466.34 32.26 450.46 15.00 400.00
C 15.60 395.77 14.19 392.01 14.00 388.00
C 8.30 387.01 4.34 382.66 0.00 379.00
L 0.00 421.00 Z"/>
</g>
<g fill="#9ACCBB" fill-opacity="1.00" stroke="None">
<path d="
M 269.00 442.00 
C 276.76 441.58 283.49 436.51 290.00 433.00
C 293.61 422.65 332.06 414.36 299.01 412.99 C 265.95 411.62 228.36 406.66 197.00 406.00
C 209.59 411.96 220.35 422.32 232.00 429.00
C 236.24 445.19 255.89 442.71 269.00 442.00 Z"/>
</g>
<g fill="#1D7D91" fill-opacity="1.00" stroke="None">
<path d="
M 380.00 430.00 
C 384.74 426.68 388.68 421.65 392.00 417.00
C 388.56 421.10 381.92 425.04 380.00 430.00 Z"/>
</g>
<g fill="#3BA8B1" fill-opacity="1.00" stroke="None">
<path d="
M 0.00 437.00 
C 15.71 453.63 16.13 424.89 0.00 421.00
L 0.00 437.00 Z"/>
</g>
<g fill="#26214F" fill-opacity="1.00" stroke="None">
<path d="
M 547.00 423.00 
C 540.61 423.38 533.64 421.77 528.00 425.00
C 528.57 428.23 527.21 430.99 527.00 434.00
C 538.17 432.38 545.62 436.09 547.00 423.00 Z"/>
</g>
<g fill="#1D8092" fill-opacity="1.00" stroke="None">
<path d="
M 374.00 437.00 
C 376.08 435.61 378.85 433.36 380.00 431.00
C 377.70 432.61 376.14 435.33 374.00 437.00 Z"/>
</g>
<g fill="#99CCBB" fill-opacity="1.00" stroke="None">
<path d="
M 152.00 454.00 
C 155.72 455.37 159.23 456.84 163.00 458.00
C 188.59 462.79 217.20 477.23 236.00 453.00
C 202.37 454.13 170.74 446.25 140.00 438.00
C 140.77 444.60 146.03 451.24 152.00 454.00 Z"/>
</g>
<g fill="#0D647D" fill-opacity="1.00" stroke="None">
<path d="
M 15.00 480.00 
C 18.59 477.49 21.04 474.13 24.00 471.00
C 21.22 471.89 15.83 471.14 15.00 468.00
C 24.58 470.29 46.23 459.91 47.00 472.00
C 45.86 471.71 40.38 469.91 42.00 472.00
C 43.41 472.60 39.57 474.26 43.00 475.00
C 44.38 476.03 47.37 476.27 49.00 477.00
C 47.87 481.63 49.71 486.19 48.00 491.00
C 45.97 489.43 41.83 489.39 42.00 486.00
C 39.89 483.60 40.36 482.72 36.00 483.00
C 28.39 486.31 31.83 531.46 42.00 532.00
C 45.31 531.77 48.63 531.48 52.00 531.00
C 57.06 530.28 65.43 530.93 57.00 536.00
C 57.46 541.06 62.93 542.82 59.00 548.00
C 54.95 546.26 51.54 543.56 48.00 542.00
C 47.85 546.44 49.71 550.40 49.00 555.00
C 56.61 555.24 70.15 544.94 80.00 539.00
C 81.82 538.37 83.05 538.31 85.00 538.00
C 88.80 536.98 93.25 534.74 98.00 536.00
C 98.95 523.44 97.43 510.21 98.00 497.00
C 94.48 497.20 93.31 493.79 90.00 494.00
C 88.10 498.84 83.34 496.91 80.00 498.00
C 81.56 493.37 82.02 489.14 86.00 486.00
C 71.18 482.24 90.73 472.21 97.00 479.00
C 95.36 477.76 95.50 471.15 98.00 474.00
C 111.85 475.25 119.30 476.08 111.32 483.32 C 103.34 490.57 123.91 505.98 101.00 493.00
C 100.23 506.94 102.47 520.13 102.00 534.00
C 109.00 534.00 116.00 534.00 123.00 534.00
C 124.53 529.65 117.57 531.86 118.00 528.00
C 129.39 523.33 144.26 528.98 154.00 520.00
C 154.00 520.00 153.78 519.37 154.00 519.00
C 155.75 516.06 150.94 515.43 152.00 512.00
C 184.12 511.77 220.22 514.32 248.00 495.00
C 248.00 495.00 248.64 495.23 249.00 495.00
C 249.41 493.23 255.05 489.41 257.00 488.00
C 240.74 497.13 218.50 481.34 199.67 483.33 C 180.84 485.32 157.41 478.00 139.00 477.00
C 122.89 475.21 104.85 474.11 90.02 467.98 C 75.20 461.84 54.71 472.54 47.00 461.00
C 43.50 461.31 39.24 464.92 37.00 461.00
C 35.39 463.98 34.84 463.96 35.00 460.00
C 33.85 468.86 -4.36 466.84 19.00 473.00
C 18.58 475.76 15.96 477.33 15.00 480.00 Z"/>
</g>
<g fill="#27204D" fill-opacity="1.00" stroke="None">
<path d="
M 517.00 461.00 
C 508.25 460.04 500.29 464.08 492.00 462.00
C 491.58 464.66 492.78 466.83 494.00 469.00
C 502.66 465.94 509.62 474.72 518.00 475.00
C 518.87 470.38 512.17 469.21 512.00 465.00
C 512.97 463.07 517.46 464.11 517.00 461.00 Z"/>
</g>
<g fill="#202751" fill-opacity="1.00" stroke="None">
<path d="
M 525.00 577.00 
C 530.77 572.07 535.82 564.34 541.00 560.00
C 539.39 530.47 538.83 495.52 537.00 463.00
C 524.82 497.03 550.80 549.09 525.00 577.00 Z"/>
</g>
<g fill="#1B345A" fill-opacity="1.00" stroke="None">
<path d="
M 15.00 480.00 
C 15.00 480.00 15.23 480.65 15.00 481.00
C 17.45 486.72 22.93 475.57 27.00 478.00
C 33.97 504.60 31.74 538.07 29.00 565.00
C 21.24 569.81 8.77 571.14 0.00 574.00
L 0.00 633.00
C 48.40 654.83 22.49 589.20 32.00 562.00
C 43.21 583.22 21.09 631.77 46.00 641.00
C 46.14 613.82 45.80 584.83 46.00 559.00
C 49.96 585.37 48.75 615.09 49.00 642.00
C 50.39 643.69 52.83 643.48 54.00 645.00
C 64.83 646.69 75.40 648.88 86.00 651.00
C 108.38 655.48 90.10 614.65 97.00 601.00 C 103.90 587.35 88.47 547.13 99.00 536.00
C 94.85 537.69 89.43 537.31 85.00 538.00
C 83.05 538.31 81.82 538.37 80.00 539.00
C 70.03 544.41 58.74 559.49 46.00 556.00
C 44.69 560.22 38.05 560.31 34.00 561.00
C 34.00 552.00 34.00 543.00 34.00 534.00
C 41.21 532.84 36.55 540.16 35.00 543.00
C 43.39 540.36 50.85 540.41 58.00 546.00
C 59.97 540.84 53.60 539.15 53.00 535.00
C 54.96 533.01 59.08 535.34 60.00 532.00
C 57.73 530.28 54.66 531.27 52.00 531.00
C 48.63 531.48 45.31 531.77 42.00 532.00
C 25.01 533.16 33.10 483.19 36.00 483.00
C 40.36 482.72 39.89 483.60 42.00 486.00
C 43.51 486.98 45.22 487.80 47.00 488.00
C 49.59 483.22 45.96 478.63 43.00 475.00
C 39.57 474.26 43.41 472.60 42.00 472.00
C 40.38 469.91 45.86 471.71 47.00 472.00
C 46.23 459.91 24.58 470.29 15.00 468.00
C 15.83 471.14 21.22 471.89 24.00 471.00
C 21.04 474.13 18.59 477.49 15.00 480.00
M 40.00 468.00 
C 39.43 470.78 35.52 469.19 35.00 472.00
C 39.54 475.08 48.60 479.48 45.00 486.00
C 42.17 480.73 33.52 475.31 30.00 480.00
C 27.90 474.62 23.82 476.89 20.00 478.00
C 25.34 471.41 31.44 468.35 40.00 468.00
M 68.00 562.00 
C 75.77 542.92 91.20 569.68 68.00 562.00 Z"/>
</g>
<g fill="#242352" fill-opacity="1.00" stroke="None">
<path d="
M 40.00 468.00 
C 31.44 468.35 25.34 471.41 20.00 478.00
C 23.82 476.89 27.90 474.62 30.00 480.00
C 33.52 475.31 42.17 480.73 45.00 486.00
C 48.60 479.48 39.54 475.08 35.00 472.00
C 35.52 469.19 39.43 470.78 40.00 468.00 Z"/>
</g>
<g fill="#216680" fill-opacity="1.00" stroke="None">
<path d="
M 289.00 473.00 
C 292.69 472.11 295.75 470.32 299.00 469.00
C 295.52 470.03 292.17 471.91 289.00 473.00 Z"/>
</g>
<g fill="#124162" fill-opacity="1.00" stroke="None">
<path d="
M 492.00 471.00 
C 488.24 467.30 485.91 472.41 482.00 473.00
C 463.20 518.73 403.61 522.56 368.00 544.00
C 365.00 551.40 325.80 552.53 332.02 573.98 C 338.25 595.42 330.42 621.57 332.00 643.00
C 352.19 647.94 354.88 625.16 368.00 618.00
C 366.80 613.35 371.23 607.40 376.00 607.00
C 400.37 552.31 474.67 526.11 504.00 478.00
C 499.42 473.31 487.56 481.99 492.00 471.00 Z"/>
</g>
<g fill="#154568" fill-opacity="1.00" stroke="None">
<path d="
M 85.00 538.00 
C 89.43 537.31 94.85 537.69 99.00 536.00
C 100.04 535.58 100.40 534.94 102.00 535.00
C 108.11 535.22 115.85 538.35 122.00 535.00
C 123.73 532.60 126.36 531.57 124.00 528.00
C 131.07 528.84 137.37 526.93 144.00 526.00
C 147.36 525.30 152.84 523.97 154.00 520.00
C 144.26 528.98 129.39 523.33 118.00 528.00
C 117.57 531.86 124.53 529.65 123.00 534.00
C 116.00 534.00 109.00 534.00 102.00 534.00
C 102.47 520.13 100.23 506.94 101.00 493.00
C 123.91 505.98 103.34 490.57 111.32 483.32 C 119.30 476.08 111.85 475.25 98.00 474.00
C 95.50 471.15 95.36 477.76 97.00 479.00
C 90.73 472.21 71.18 482.24 86.00 486.00
C 82.02 489.14 81.56 493.37 80.00 498.00
C 83.34 496.91 88.10 498.84 90.00 494.00
C 93.31 493.79 94.48 497.20 98.00 497.00
C 97.43 510.21 98.95 523.44 98.00 536.00
C 93.25 534.74 88.80 536.98 85.00 538.00
M 92.00 491.00 
C 91.52 490.90 90.50 490.98 90.00 491.00
C 87.61 492.63 87.49 497.90 83.00 496.00
C 84.42 489.04 90.91 484.12 82.00 481.00
C 86.58 474.84 98.60 484.52 99.00 478.00
C 103.16 480.80 112.59 474.31 113.00 482.00
C 101.03 482.39 113.30 490.24 113.00 496.00
C 105.84 490.37 98.50 493.39 92.00 491.00 Z"/>
</g>
<g fill="#184D6F" fill-opacity="1.00" stroke="None">
<path d="
M 42.00 486.00 
C 41.83 489.39 45.97 489.43 48.00 491.00
C 49.71 486.19 47.87 481.63 49.00 477.00
C 47.37 476.27 44.38 476.03 43.00 475.00
C 45.96 478.63 49.59 483.22 47.00 488.00
C 45.22 487.80 43.51 486.98 42.00 486.00 Z"/>
</g>
<g fill="#246E82" fill-opacity="1.00" stroke="None">
<path d="
M 274.00 478.00 
C 276.01 477.19 277.69 476.74 280.00 477.00
C 280.00 477.00 280.51 477.06 281.00 477.00
C 281.00 477.00 280.75 476.22 281.00 476.00
C 277.50 475.31 276.34 476.65 274.00 478.00 Z"/>
</g>
<g fill="#0D4662" fill-opacity="1.00" stroke="None">
<path d="
M 274.00 478.00 
C 270.76 479.86 267.13 481.26 264.00 483.00
C 262.02 484.41 262.30 486.00 260.00 487.00
C 258.97 487.45 258.06 487.41 257.00 488.00
C 255.05 489.41 249.41 493.23 249.00 495.00
C 254.57 494.30 259.53 485.35 264.00 489.00
C 267.40 483.84 274.44 479.91 280.00 477.00
C 277.69 476.74 276.01 477.19 274.00 478.00 Z"/>
</g>
<g fill="#114869" fill-opacity="1.00" stroke="None">
<path d="
M 15.00 481.00 
C 14.34 481.99 14.44 481.72 14.00 483.00
C 13.89 484.32 14.08 485.67 14.00 487.00
C 19.59 485.63 20.10 480.34 26.00 479.00
C 31.69 506.24 30.55 536.73 29.00 565.00
C 31.74 538.07 33.97 504.60 27.00 478.00
C 22.93 475.57 17.45 486.72 15.00 481.00 Z"/>
</g>
<g fill="#1E2E58" fill-opacity="1.00" stroke="None">
<path d="
M 90.00 491.00 
C 88.74 491.05 86.49 491.53 86.00 490.00
C 89.99 488.19 92.36 485.26 93.00 481.00
C 98.65 486.62 104.39 477.70 111.00 480.00
C 104.20 481.51 106.97 487.27 108.00 492.00
C 102.74 490.28 97.35 488.05 92.00 491.00
C 98.50 493.39 105.84 490.37 113.00 496.00
C 113.30 490.24 101.03 482.39 113.00 482.00
C 112.59 474.31 103.16 480.80 99.00 478.00
C 98.60 484.52 86.58 474.84 82.00 481.00
C 90.91 484.12 84.42 489.04 83.00 496.00
C 87.49 497.90 87.61 492.63 90.00 491.00 Z"/>
</g>
<g fill="#0A5F79" fill-opacity="1.00" stroke="None">
<path d="
M 14.00 483.00 
C 12.24 483.50 13.28 485.72 13.00 487.00
C 8.44 488.03 4.47 490.81 0.00 492.00
L 0.00 574.00
C 8.77 571.14 21.24 569.81 29.00 565.00
C 30.55 536.73 31.69 506.24 26.00 479.00
C 20.10 480.34 19.59 485.63 14.00 487.00
C 14.08 485.67 13.89 484.32 14.00 483.00 Z"/>
</g>
<g fill="#27204F" fill-opacity="1.00" stroke="None">
<path d="
M 90.00 491.00 
C 90.50 490.98 91.52 490.90 92.00 491.00
C 97.35 488.05 102.74 490.28 108.00 492.00
C 106.97 487.27 104.20 481.51 111.00 480.00
C 104.39 477.70 98.65 486.62 93.00 481.00
C 92.36 485.26 89.99 488.19 86.00 490.00
C 86.49 491.53 88.74 491.05 90.00 491.00 Z"/>
</g>
<g fill="#15496C" fill-opacity="1.00" stroke="None">
<path d="
M 42.00 532.00 
C 31.83 531.46 28.39 486.31 36.00 483.00
C 33.10 483.19 25.01 533.16 42.00 532.00 Z"/>
</g>
<g fill="#297B91" fill-opacity="1.00" stroke="None">
<path d="
M 260.00 487.00 
C 262.30 486.00 262.02 484.41 264.00 483.00
C 262.08 484.07 261.82 485.77 260.00 487.00 Z"/>
</g>
<g fill="#144667" fill-opacity="1.00" stroke="None">
<path d="
M 154.00 519.00 
C 157.87 517.78 154.02 515.17 154.00 513.00
C 158.17 514.32 170.82 509.97 169.00 516.00
C 185.69 516.31 203.44 512.69 218.00 511.00
C 224.21 504.76 239.61 503.21 248.00 495.00
C 220.22 514.32 184.12 511.77 152.00 512.00
C 150.94 515.43 155.75 516.06 154.00 519.00 Z"/>
</g>
<g fill="#202750" fill-opacity="1.00" stroke="None">
<path d="
M 458.00 624.00 
C 476.38 617.30 497.60 608.19 507.00 589.00
C 512.06 590.28 515.30 585.33 518.00 582.00
C 515.11 583.62 513.37 587.10 510.00 588.00
C 507.66 558.07 509.26 526.61 507.00 497.00
C 504.83 523.13 505.42 556.59 505.00 583.00 C 504.58 609.41 475.16 612.11 458.00 624.00 Z"/>
</g>
<g fill="#252753" fill-opacity="1.00" stroke="None">
<path d="
M 166.00 515.00 
C 155.87 512.28 151.96 523.46 163.78 525.22 C 175.60 526.99 176.22 517.74 166.00 515.00 Z"/>
</g>
<g fill="#222752" fill-opacity="1.00" stroke="None">
<path d="
M 122.00 535.00 
C 120.87 536.56 120.31 538.55 119.00 540.00
C 140.58 541.19 128.66 572.90 131.00 592.00 C 133.34 611.10 129.25 638.17 131.00 658.00
C 97.06 664.13 100.92 636.46 102.00 611.00 C 103.08 585.54 101.19 560.43 102.00 535.00
C 100.40 534.94 100.04 535.58 99.00 536.00
C 88.47 547.13 103.90 587.35 97.00 601.00 C 90.10 614.65 108.38 655.48 86.00 651.00
C 155.83 684.77 260.92 651.36 337.00 644.00
C 318.08 643.33 294.00 648.69 276.00 649.00 C 258.00 649.31 234.10 657.39 218.00 656.00 C 201.90 654.61 168.84 670.03 165.00 654.00 C 161.16 637.97 165.94 605.57 165.00 589.00 C 164.06 572.43 164.71 530.19 162.00 553.00 C 159.29 575.81 162.71 597.93 162.00 618.00 C 161.29 638.07 167.36 667.80 145.00 662.00 C 122.64 656.20 140.89 624.17 136.00 606.00 C 131.11 587.83 139.66 560.05 136.00 541.00
C 145.03 546.39 149.94 527.51 144.00 526.00
C 137.37 526.93 131.07 528.84 124.00 528.00
C 126.36 531.57 123.73 532.60 122.00 535.00 Z"/>
</g>
<g fill="#195272" fill-opacity="1.00" stroke="None">
<path d="
M 52.00 531.00 
C 54.66 531.27 57.73 530.28 60.00 532.00
C 59.08 535.34 54.96 533.01 53.00 535.00
C 53.60 539.15 59.97 540.84 58.00 546.00
C 50.85 540.41 43.39 540.36 35.00 543.00
C 36.55 540.16 41.21 532.84 34.00 534.00
C 34.00 543.00 34.00 552.00 34.00 561.00
C 38.05 560.31 44.69 560.22 46.00 556.00
C 58.74 559.49 70.03 544.41 80.00 539.00
C 70.15 544.94 56.61 555.24 49.00 555.00
C 49.71 550.40 47.85 546.44 48.00 542.00
C 51.54 543.56 54.95 546.26 59.00 548.00
C 62.93 542.82 57.46 541.06 57.00 536.00
C 65.43 530.93 57.06 530.28 52.00 531.00
M 46.00 543.00 
C 47.97 552.30 44.91 560.06 35.00 560.00
C 34.28 554.73 36.56 550.24 36.00 545.00
C 39.64 544.48 41.62 540.79 46.00 543.00 Z"/>
</g>
<g fill="#1B345A" fill-opacity="1.00" stroke="None">
<path d="
M 122.00 535.00 
C 115.85 538.35 108.11 535.22 102.00 535.00
C 101.19 560.43 103.08 585.54 102.00 611.00 C 100.92 636.46 97.06 664.13 131.00 658.00
C 129.25 638.17 133.34 611.10 131.00 592.00 C 128.66 572.90 140.58 541.19 119.00 540.00
C 120.31 538.55 120.87 536.56 122.00 535.00 Z"/>
</g>
<g fill="#15647E" fill-opacity="1.00" stroke="None">
<path d="
M 46.00 543.00 
C 41.62 540.79 39.64 544.48 36.00 545.00
C 36.56 550.24 34.28 554.73 35.00 560.00
C 44.91 560.06 47.97 552.30 46.00 543.00 Z"/>
</g>
<g fill="#2F123E" fill-opacity="1.00" stroke="None">
<path d="
M 541.00 560.00 
C 535.82 564.34 530.77 572.07 525.00 577.00
C 522.82 578.86 520.15 580.50 518.00 582.00
C 515.30 585.33 512.06 590.28 507.00 589.00
C 497.60 608.19 476.38 617.30 458.00 624.00
C 430.58 643.00 370.15 644.00 337.00 644.00
C 260.92 651.36 155.83 684.77 86.00 651.00
C 75.40 648.88 64.83 646.69 54.00 645.00
C 46.96 643.90 35.93 644.19 32.00 638.00
C 21.31 640.44 10.43 635.79 0.00 634.00
L 0.00 1497.00
L 558.00 1497.00
L 558.00 548.00
C 553.61 553.36 545.71 556.05 541.00 560.00 Z"/>
</g>
<g fill="#291F50" fill-opacity="1.00" stroke="None">
<path d="
M 68.00 562.00 
C 91.20 569.68 75.77 542.92 68.00 562.00 Z"/>
</g>
<g fill="#212651" fill-opacity="1.00" stroke="None">
<path d="
M 0.00 633.00 
L 0.00 634.00
C 10.43 635.79 21.31 640.44 32.00 638.00
C 35.93 644.19 46.96 643.90 54.00 645.00
C 52.83 643.48 50.39 643.69 49.00 642.00
C 48.75 615.09 49.96 585.37 46.00 559.00
C 45.80 584.83 46.14 613.82 46.00 641.00
C 21.09 631.77 43.21 583.22 32.00 562.00
C 22.49 589.20 48.40 654.83 0.00 633.00 Z"/>
</g>
</svg>